G75*
G70*
%OFA0B0*%
%FSLAX24Y24*%
%IPPOS*%
%LPD*%
%AMOC8*
5,1,8,0,0,1.08239X$1,22.5*
%
%ADD10C,0.0040*%
%ADD11C,0.0520*%
%ADD12C,0.2100*%
%ADD13C,0.0600*%
%ADD14C,0.0669*%
%ADD15OC8,0.0520*%
%ADD16C,0.0560*%
%ADD17OC8,0.0560*%
%ADD18C,0.0560*%
%ADD19C,0.0520*%
%ADD20C,0.0515*%
%ADD21OC8,0.0480*%
%ADD22C,0.0480*%
%ADD23C,0.0120*%
%ADD24OC8,0.0400*%
%ADD25C,0.0240*%
D10*
X010521Y001670D02*
X010981Y001670D01*
X010981Y001901D01*
X010904Y001977D01*
X010751Y001977D01*
X010674Y001901D01*
X010674Y001670D01*
X010597Y002131D02*
X010597Y002207D01*
X010521Y002207D01*
X010521Y002131D01*
X010597Y002131D01*
X010597Y002821D02*
X010521Y002898D01*
X010521Y003051D01*
X010597Y003128D01*
X010521Y003282D02*
X010828Y003282D01*
X010828Y003435D02*
X010828Y003512D01*
X010828Y003435D02*
X010674Y003282D01*
X010904Y003128D02*
X010981Y003051D01*
X010981Y002898D01*
X010904Y002821D01*
X010597Y002821D01*
X010597Y003665D02*
X010674Y003742D01*
X010674Y003972D01*
X010751Y003972D02*
X010521Y003972D01*
X010521Y003742D01*
X010597Y003665D01*
X010828Y003742D02*
X010828Y003895D01*
X010751Y003972D01*
X010828Y004126D02*
X010521Y004126D01*
X010521Y004432D02*
X010751Y004432D01*
X010828Y004356D01*
X010828Y004126D01*
X010828Y004586D02*
X010597Y004586D01*
X010521Y004663D01*
X010597Y004739D01*
X010521Y004816D01*
X010597Y004893D01*
X010828Y004893D01*
X010751Y005046D02*
X010597Y005046D01*
X010521Y005123D01*
X010521Y005276D01*
X010674Y005353D02*
X010674Y005046D01*
X010751Y005046D02*
X010828Y005123D01*
X010828Y005276D01*
X010751Y005353D01*
X010674Y005353D01*
X010521Y005507D02*
X010521Y005660D01*
X010521Y005583D02*
X010981Y005583D01*
X010981Y005507D01*
X010981Y005814D02*
X010981Y005890D01*
X010521Y005890D01*
X010521Y005814D02*
X010521Y005967D01*
X011921Y006209D02*
X012074Y006363D01*
X012381Y006363D01*
X012151Y006516D02*
X012151Y006823D01*
X011921Y006747D02*
X012381Y006747D01*
X012151Y006516D01*
X011921Y006209D02*
X012074Y006056D01*
X012381Y006056D01*
X012381Y005442D02*
X011921Y005442D01*
X011921Y005212D01*
X011997Y005135D01*
X012151Y005135D01*
X012228Y005212D01*
X012228Y005442D01*
X012228Y004982D02*
X012228Y004905D01*
X012074Y004752D01*
X011921Y004752D02*
X012228Y004752D01*
X012151Y004598D02*
X011921Y004598D01*
X011921Y004368D01*
X011997Y004291D01*
X012074Y004368D01*
X012074Y004598D01*
X012151Y004598D02*
X012228Y004522D01*
X012228Y004368D01*
X012151Y004138D02*
X012228Y004061D01*
X012228Y003908D01*
X012151Y003831D01*
X011997Y003831D01*
X011921Y003908D01*
X011921Y004061D01*
X011997Y004138D01*
X012151Y004138D01*
X012074Y003678D02*
X011997Y003678D01*
X011921Y003601D01*
X011921Y003371D01*
X012381Y003371D01*
X012381Y003601D01*
X012304Y003678D01*
X012228Y003678D01*
X012151Y003601D01*
X012151Y003371D01*
X012151Y003601D02*
X012074Y003678D01*
X012151Y002757D02*
X011921Y002757D01*
X011921Y002603D02*
X012151Y002603D01*
X012228Y002680D01*
X012151Y002757D01*
X012151Y002603D02*
X012228Y002527D01*
X012228Y002450D01*
X011921Y002450D01*
X011921Y002296D02*
X012151Y002296D01*
X012228Y002220D01*
X012151Y002143D01*
X011921Y002143D01*
X011921Y001990D02*
X012228Y001990D01*
X012228Y002066D01*
X012151Y002143D01*
X012151Y001836D02*
X012228Y001759D01*
X012228Y001606D01*
X012151Y001529D01*
X011997Y001529D01*
X011921Y001606D01*
X011921Y001759D01*
X011997Y001836D01*
X012151Y001836D01*
X012304Y001376D02*
X012381Y001299D01*
X012381Y001146D01*
X012304Y001069D01*
X011997Y001069D01*
X011921Y001146D01*
X011921Y001299D01*
X011997Y001376D01*
X011997Y007437D02*
X011921Y007437D01*
X011997Y007437D02*
X012304Y007744D01*
X012381Y007744D01*
X012381Y007437D01*
X011921Y007897D02*
X012381Y008204D01*
X012228Y008358D02*
X012381Y008511D01*
X011921Y008511D01*
X011921Y008358D02*
X011921Y008665D01*
X011921Y008818D02*
X012381Y009125D01*
X012304Y009279D02*
X012381Y009355D01*
X012381Y009509D01*
X012304Y009585D01*
X012228Y009585D01*
X011921Y009279D01*
X011921Y009585D01*
X011997Y009739D02*
X012304Y010046D01*
X011997Y010046D01*
X011921Y009969D01*
X011921Y009816D01*
X011997Y009739D01*
X012304Y009739D01*
X012381Y009816D01*
X012381Y009969D01*
X012304Y010046D01*
X012228Y010199D02*
X012381Y010353D01*
X011921Y010353D01*
X011921Y010506D02*
X011921Y010199D01*
X011997Y010660D02*
X011921Y010736D01*
X011921Y010890D01*
X011997Y010966D01*
X012074Y010966D01*
X012151Y010890D01*
X012151Y010813D01*
X012151Y010890D02*
X012228Y010966D01*
X012304Y010966D01*
X012381Y010890D01*
X012381Y010736D01*
X012304Y010660D01*
D11*
X012341Y020401D02*
X012861Y020401D01*
X012861Y021401D02*
X012341Y021401D01*
X011454Y021481D02*
X010934Y021481D01*
X010934Y020481D02*
X011454Y020481D01*
X012341Y022401D02*
X012861Y022401D01*
X012861Y023401D02*
X012341Y023401D01*
X011454Y023481D02*
X010934Y023481D01*
X010934Y022481D02*
X011454Y022481D01*
X008454Y022481D02*
X007934Y022481D01*
X007934Y023481D02*
X008454Y023481D01*
X008454Y021481D02*
X007934Y021481D01*
X007934Y020481D02*
X008454Y020481D01*
X015341Y020401D02*
X015861Y020401D01*
X015861Y021401D02*
X015341Y021401D01*
X015341Y022401D02*
X015861Y022401D01*
X015861Y023401D02*
X015341Y023401D01*
X020894Y023257D02*
X021414Y023257D01*
X021414Y022257D02*
X020894Y022257D01*
X020894Y021257D02*
X021414Y021257D01*
X023894Y021257D02*
X024414Y021257D01*
X024414Y022257D02*
X023894Y022257D01*
X023894Y023257D02*
X024414Y023257D01*
X024414Y024257D02*
X023894Y024257D01*
X021414Y024257D02*
X020894Y024257D01*
X023412Y013698D02*
X023932Y013698D01*
X023932Y012698D02*
X023412Y012698D01*
X023412Y011698D02*
X023932Y011698D01*
X023932Y010698D02*
X023412Y010698D01*
X023412Y009698D02*
X023932Y009698D01*
X023932Y008698D02*
X023412Y008698D01*
X023412Y007698D02*
X023932Y007698D01*
X023932Y006698D02*
X023412Y006698D01*
X023412Y005698D02*
X023932Y005698D01*
X023932Y004698D02*
X023412Y004698D01*
X026412Y004698D02*
X026932Y004698D01*
X026932Y005698D02*
X026412Y005698D01*
X026412Y006698D02*
X026932Y006698D01*
X026932Y007698D02*
X026412Y007698D01*
X026412Y008698D02*
X026932Y008698D01*
X026932Y009698D02*
X026412Y009698D01*
X026412Y010698D02*
X026932Y010698D01*
X026932Y011698D02*
X026412Y011698D01*
X026412Y012698D02*
X026932Y012698D01*
X026932Y013698D02*
X026412Y013698D01*
D12*
X002401Y002001D03*
X026784Y002228D03*
X027001Y025201D03*
X001901Y025401D03*
D13*
X004536Y024982D02*
X004536Y024382D01*
X005536Y024382D02*
X005536Y024982D01*
X006536Y024982D02*
X006536Y024382D01*
X006646Y022648D02*
X006646Y022048D01*
X005646Y022048D02*
X005646Y022648D01*
X004646Y022648D02*
X004646Y022048D01*
X008736Y024831D02*
X008736Y025431D01*
X009736Y025431D02*
X009736Y024831D01*
X010736Y024831D02*
X010736Y025431D01*
X011736Y025431D02*
X011736Y024831D01*
X013411Y024926D02*
X013411Y025526D01*
X014411Y025526D02*
X014411Y024926D01*
X015411Y024926D02*
X015411Y025526D01*
X023401Y016901D02*
X023401Y016301D01*
X024401Y016301D02*
X024401Y016901D01*
X025401Y016901D02*
X025401Y016301D01*
X026401Y016301D02*
X026401Y016901D01*
X009901Y015601D02*
X009901Y015001D01*
X008901Y015001D02*
X008901Y015601D01*
X007901Y015601D02*
X007901Y015001D01*
X005101Y015001D02*
X005101Y015601D01*
X004101Y015601D02*
X004101Y015001D01*
X003101Y015001D02*
X003101Y015601D01*
D14*
X006824Y018389D03*
X009824Y018389D03*
D15*
X010901Y016501D03*
X013901Y016501D03*
X018180Y019261D03*
X019180Y019261D03*
X023503Y018646D03*
X026503Y018646D03*
X019093Y025674D03*
X018093Y025674D03*
X005234Y018335D03*
X004234Y018335D03*
X004232Y017083D03*
X005232Y017083D03*
X004501Y006701D03*
X005801Y006101D03*
X005801Y004201D03*
X004501Y003701D03*
X005901Y002501D03*
X008901Y002501D03*
X008801Y004201D03*
X008801Y006101D03*
D16*
X015556Y017746D03*
D17*
X015556Y016746D03*
X016556Y016746D03*
X016556Y017746D03*
X017556Y017746D03*
X017556Y016746D03*
X018556Y016746D03*
X018556Y017746D03*
X019556Y017746D03*
X020556Y017746D03*
X020556Y016746D03*
X019556Y016746D03*
D18*
X012829Y018089D02*
X012829Y018649D01*
X011829Y018649D02*
X011829Y018089D01*
D19*
X018539Y021586D03*
X018539Y023486D03*
D20*
X021636Y011276D03*
X021636Y010488D03*
X021636Y009701D03*
X021636Y008913D03*
X021636Y008126D03*
X021636Y007339D03*
X021636Y006551D03*
X021636Y005764D03*
X021636Y004976D03*
X021636Y004189D03*
X012975Y004189D03*
X012975Y004976D03*
X012975Y005764D03*
X012975Y006551D03*
X012975Y007339D03*
X012975Y008126D03*
X012975Y008913D03*
X012975Y009701D03*
X012975Y010488D03*
X012975Y011276D03*
D21*
X005451Y020301D03*
D22*
X004751Y020301D03*
D23*
X004801Y020301D01*
X005201Y020701D01*
X007901Y020701D01*
X008101Y020501D01*
X008194Y020481D01*
X008601Y021001D02*
X008201Y021401D01*
X008194Y021481D01*
X008101Y021501D01*
X008001Y021601D01*
X005401Y021601D01*
X004701Y022301D01*
X004646Y022348D01*
X008194Y022481D02*
X008201Y022401D01*
X008601Y022001D01*
X012201Y022001D01*
X012601Y022401D01*
X012601Y021401D02*
X012201Y021001D01*
X008601Y021001D01*
X011301Y019101D02*
X013001Y019101D01*
X013301Y018801D01*
X019901Y018801D01*
X020101Y018601D01*
X023501Y018601D01*
X023503Y018646D01*
X023601Y017401D02*
X024401Y016601D01*
X023601Y017401D02*
X021001Y017401D01*
X020801Y017601D01*
X020556Y017746D01*
X020101Y018601D02*
X020101Y016401D01*
X023301Y013201D01*
X024101Y013201D01*
X026601Y010701D01*
X026672Y010698D01*
X026601Y008701D02*
X026672Y008698D01*
X026601Y008701D02*
X024101Y011201D01*
X022601Y011201D01*
X017701Y016101D01*
X013501Y016101D01*
X011701Y017601D02*
X015401Y017601D01*
X015501Y017701D01*
X015556Y017746D01*
X014701Y019501D02*
X013001Y019501D01*
X013901Y019901D02*
X014801Y020801D01*
X023701Y020801D01*
X024101Y021201D01*
X024154Y021257D01*
X024601Y021701D02*
X026501Y019801D01*
X026501Y018701D01*
X026503Y018646D01*
X026401Y016601D02*
X025601Y015801D01*
X021501Y015801D01*
X020556Y016746D01*
X019556Y016746D02*
X019501Y016701D01*
X019101Y016301D01*
X018001Y016301D01*
X017556Y016746D01*
X018001Y017301D02*
X017556Y017746D01*
X018001Y017301D02*
X019101Y017301D01*
X019501Y017701D01*
X019556Y017746D01*
X018556Y017746D02*
X018101Y018201D01*
X013001Y018201D01*
X012901Y018301D01*
X012829Y018369D01*
X011701Y017601D02*
X011201Y018101D01*
X011301Y019101D02*
X012601Y020401D01*
X011301Y019101D02*
X009301Y017101D01*
X005301Y017101D01*
X005232Y017083D01*
X005201Y017101D01*
X004801Y017501D01*
X004001Y017501D01*
X003801Y017301D01*
X003801Y016101D01*
X003901Y016101D01*
X003101Y015301D01*
X003901Y016101D02*
X007101Y016101D01*
X007901Y015301D01*
X008901Y015301D02*
X009701Y014501D01*
X018701Y014501D01*
X018701Y007101D01*
X021601Y004201D01*
X021636Y004189D01*
X026601Y007701D02*
X026672Y007698D01*
X026601Y007701D02*
X024101Y010201D01*
X023301Y010201D01*
X017801Y015701D01*
X016001Y015701D01*
X014701Y019501D02*
X015601Y020401D01*
X014801Y020801D02*
X015401Y021401D01*
X015601Y021401D01*
X016301Y022701D02*
X023701Y022701D01*
X024101Y022301D01*
X024154Y022257D01*
X024601Y021701D02*
X021601Y021701D01*
X021201Y021301D01*
X021154Y021257D01*
X020501Y021601D02*
X018601Y021601D01*
X018539Y021586D01*
X018601Y023401D02*
X018539Y023486D01*
X018601Y023401D02*
X021001Y023401D01*
X021101Y023301D01*
X021154Y023257D01*
X021154Y022257D02*
X021101Y022201D01*
X020501Y021601D01*
X016301Y022701D02*
X015601Y023401D01*
X013201Y011701D02*
X007101Y011701D01*
X007101Y009301D01*
X004501Y006701D01*
X007601Y004201D02*
X008801Y004201D01*
X007601Y004201D02*
X005901Y002501D01*
X012975Y010488D02*
X013001Y010501D01*
X013401Y010501D01*
X013401Y011501D01*
X018301Y011501D01*
X013401Y011501D02*
X013201Y011701D01*
D24*
X016001Y015701D03*
X013501Y016101D03*
X011201Y018101D03*
X013001Y019501D03*
X013901Y019901D03*
X018301Y011501D03*
D25*
X021636Y011276D02*
X021801Y011101D01*
X022901Y010001D01*
X022901Y007201D01*
X028201Y007201D01*
X028201Y003645D01*
X026784Y002228D01*
X028201Y007201D02*
X028201Y009701D01*
X027101Y009701D01*
X026672Y009698D01*
X028201Y009701D02*
X028201Y012701D01*
X027101Y012701D01*
X026672Y012698D01*
X028201Y012701D02*
X028201Y017401D01*
X025901Y017401D01*
X025601Y017101D01*
X025401Y016601D01*
X028201Y017401D02*
X028201Y024001D01*
X027001Y025201D01*
X026001Y024801D01*
X025001Y024801D01*
X024601Y024401D01*
X024154Y024257D01*
X025701Y026501D02*
X027001Y025201D01*
X025701Y026501D02*
X019101Y026501D01*
X019101Y025901D01*
X019093Y025674D01*
X019101Y026501D02*
X015401Y026501D01*
X015401Y025801D01*
X015411Y025226D01*
X015401Y026501D02*
X010701Y026501D01*
X010701Y025701D01*
X010736Y025131D01*
X010701Y026501D02*
X008201Y026501D01*
X008201Y023701D01*
X008194Y023481D01*
X005536Y024682D02*
X005601Y025201D01*
X005601Y026501D01*
X008201Y026501D01*
X005601Y026501D02*
X003001Y026501D01*
X001901Y025401D01*
X000801Y024301D01*
X000801Y003601D01*
X002401Y002001D01*
X004501Y003701D02*
X004701Y003801D01*
X005001Y004101D01*
X005601Y004101D01*
X005801Y004201D01*
X009901Y015301D02*
X009701Y015801D01*
X008901Y016601D01*
X004701Y016601D01*
X004401Y016901D01*
X004232Y017083D01*
X009901Y015301D02*
X010101Y015801D01*
X010701Y016401D01*
X010901Y016501D01*
M02*
