%
M48
M72
T01C0.0240
T02C0.0280
T03C0.0315
T04C0.0320
T05C0.0360
T06C0.0400
T07C0.0433
T08C0.1102
T09C0.1300
%
T01
X16001Y15701
X13501Y16101
X11201Y18101
X13001Y19501
X13901Y19901
X18301Y11501
T02
X5451Y20301
X4751Y20301
T03
X12975Y11276
X12975Y10488
X12975Y9701
X12975Y8913
X12975Y8126
X12975Y7339
X12975Y6551
X12975Y5764
X12975Y4976
X12975Y4189
X21636Y4189
X21636Y4976
X21636Y5764
X21636Y6551
X21636Y7339
X21636Y8126
X21636Y8913
X21636Y9701
X21636Y10488
X21636Y11276
T04
X23672Y11698
X23672Y10698
X23672Y9698
X23672Y8698
X23672Y7698
X23672Y6698
X23672Y5698
X23672Y4698
X26672Y4698
X26672Y5698
X26672Y6698
X26672Y7698
X26672Y8698
X26672Y9698
X26672Y10698
X26672Y11698
X26672Y12698
X26672Y13698
X23672Y13698
X23672Y12698
X23503Y18646
X24154Y21257
X24154Y22257
X24154Y23257
X24154Y24257
X21154Y24257
X21154Y23257
X21154Y22257
X21154Y21257
X19180Y19261
X18180Y19261
X18539Y21586
X18539Y23486
X18093Y25674
X19093Y25674
X15601Y23401
X15601Y22401
X15601Y21401
X15601Y20401
X12601Y20401
X12601Y21401
X12601Y22401
X12601Y23401
X11194Y23481
X11194Y22481
X11194Y21481
X11194Y20481
X8194Y20481
X8194Y21481
X8194Y22481
X8194Y23481
X5234Y18335
X4234Y18335
X4232Y17083
X5232Y17083
X10901Y16501
X13901Y16501
X4501Y6701
X5801Y6101
X5801Y4201
X4501Y3701
X5901Y2501
X8901Y2501
X8801Y4201
X8801Y6101
X26503Y18646
T05
X20556Y17746
X19556Y17746
X18556Y17746
X18556Y16746
X19556Y16746
X20556Y16746
X17556Y16746
X17556Y17746
X16556Y17746
X16556Y16746
X15556Y16746
X15556Y17746
X12829Y18369
X11829Y18369
T06
X9901Y15301
X8901Y15301
X7901Y15301
X5101Y15301
X4101Y15301
X3101Y15301
X4646Y22348
X5646Y22348
X6646Y22348
X6536Y24682
X5536Y24682
X4536Y24682
X8736Y25131
X9736Y25131
X10736Y25131
X11736Y25131
X13411Y25226
X14411Y25226
X15411Y25226
X23401Y16601
X24401Y16601
X25401Y16601
X26401Y16601
T07
X9824Y18389
X6824Y18389
T08
X2401Y2001
X26784Y2228
X27001Y25201
X1901Y25401
T09
X4101Y9401
X8901Y9401
M30
