G75*
G70*
%OFA0B0*%
%FSLAX24Y24*%
%IPPOS*%
%LPD*%
%AMOC8*
5,1,8,0,0,1.08239X$1,22.5*
%
%ADD10C,0.0040*%
%ADD11C,0.0520*%
%ADD12C,0.0660*%
%ADD13OC8,0.0630*%
%ADD14C,0.0630*%
%ADD15OC8,0.0520*%
%ADD16C,0.0600*%
%ADD17OC8,0.0850*%
%ADD18C,0.2300*%
%ADD19C,0.0560*%
%ADD20C,0.0440*%
%ADD21C,0.0240*%
%ADD22OC8,0.0400*%
%ADD23C,0.0100*%
D10*
X001821Y009330D02*
X002281Y009330D01*
X002281Y009637D01*
X002281Y009790D02*
X002281Y010020D01*
X002204Y010097D01*
X002128Y010097D01*
X002051Y010020D01*
X002051Y009790D01*
X001821Y009790D02*
X002281Y009790D01*
X002051Y010020D02*
X001974Y010097D01*
X001897Y010097D01*
X001821Y010020D01*
X001821Y009790D01*
X002051Y009483D02*
X002051Y009330D01*
X001897Y010251D02*
X001821Y010327D01*
X001821Y010481D01*
X001897Y010557D01*
X001974Y010557D01*
X002051Y010481D01*
X002051Y010404D01*
X002051Y010481D02*
X002128Y010557D01*
X002204Y010557D01*
X002281Y010481D01*
X002281Y010327D01*
X002204Y010251D01*
X002128Y011171D02*
X002281Y011325D01*
X001821Y011325D01*
X001821Y011478D02*
X001821Y011171D01*
X001821Y011632D02*
X002281Y011938D01*
X002128Y012092D02*
X002281Y012245D01*
X001821Y012245D01*
X001821Y012092D02*
X001821Y012399D01*
X001897Y012552D02*
X001974Y012552D01*
X002051Y012629D01*
X002051Y012782D01*
X001974Y012859D01*
X001897Y012859D01*
X001821Y012782D01*
X001821Y012629D01*
X001897Y012552D01*
X002051Y012629D02*
X002128Y012552D01*
X002204Y012552D01*
X002281Y012629D01*
X002281Y012782D01*
X002204Y012859D01*
X002128Y012859D01*
X002051Y012782D01*
X001821Y013013D02*
X002281Y013320D01*
X002204Y013473D02*
X002281Y013550D01*
X002281Y013703D01*
X002204Y013780D01*
X002128Y013780D01*
X001821Y013473D01*
X001821Y013780D01*
X001897Y013933D02*
X002204Y014240D01*
X001897Y014240D01*
X001821Y014164D01*
X001821Y014010D01*
X001897Y013933D01*
X002204Y013933D01*
X002281Y014010D01*
X002281Y014164D01*
X002204Y014240D01*
X002128Y014394D02*
X002281Y014547D01*
X001821Y014547D01*
X001821Y014394D02*
X001821Y014701D01*
X001821Y014854D02*
X002128Y015161D01*
X002204Y015161D01*
X002281Y015084D01*
X002281Y014931D01*
X002204Y014854D01*
X001821Y014854D02*
X001821Y015161D01*
X001974Y016235D02*
X002128Y016235D01*
X002281Y016389D01*
X002204Y016542D02*
X002281Y016619D01*
X002281Y016772D01*
X002204Y016849D01*
X002281Y017002D02*
X002128Y017156D01*
X001974Y017156D01*
X001821Y017002D01*
X001897Y016849D02*
X001821Y016772D01*
X001821Y016619D01*
X001897Y016542D01*
X002204Y016542D01*
X001974Y016235D02*
X001821Y016389D01*
X001821Y017770D02*
X002281Y017770D01*
X002281Y018000D01*
X002204Y018076D01*
X002051Y018076D01*
X001974Y018000D01*
X001974Y017770D01*
X001897Y018230D02*
X001897Y018307D01*
X001821Y018307D01*
X001821Y018230D01*
X001897Y018230D01*
X001897Y018920D02*
X001821Y018997D01*
X001821Y019151D01*
X001897Y019227D01*
X001821Y019381D02*
X002128Y019381D01*
X002128Y019534D02*
X001974Y019381D01*
X002128Y019534D02*
X002128Y019611D01*
X002128Y019841D02*
X002128Y019995D01*
X002051Y020071D01*
X001821Y020071D01*
X001821Y019841D01*
X001897Y019764D01*
X001974Y019841D01*
X001974Y020071D01*
X001821Y020225D02*
X002128Y020225D01*
X002128Y020455D01*
X002051Y020532D01*
X001821Y020532D01*
X001897Y020685D02*
X001821Y020762D01*
X001897Y020839D01*
X001821Y020915D01*
X001897Y020992D01*
X002128Y020992D01*
X002051Y021146D02*
X002128Y021222D01*
X002128Y021376D01*
X002051Y021452D01*
X001974Y021452D01*
X001974Y021146D01*
X001897Y021146D02*
X002051Y021146D01*
X001897Y021146D02*
X001821Y021222D01*
X001821Y021376D01*
X001821Y021606D02*
X001821Y021759D01*
X001821Y021683D02*
X002281Y021683D01*
X002281Y021606D01*
X002281Y021913D02*
X002281Y021989D01*
X001821Y021989D01*
X001821Y021913D02*
X001821Y022066D01*
X001897Y020685D02*
X002128Y020685D01*
X002204Y019227D02*
X002281Y019151D01*
X002281Y018997D01*
X002204Y018920D01*
X001897Y018920D01*
D11*
X005101Y022341D02*
X005101Y022861D01*
X006101Y022861D02*
X006101Y022341D01*
X007101Y022341D02*
X007101Y022861D01*
X008101Y022861D02*
X008101Y022341D01*
X010341Y022101D02*
X010861Y022101D01*
X010861Y023101D02*
X010341Y023101D01*
X010341Y024101D02*
X010861Y024101D01*
X012341Y024101D02*
X012861Y024101D01*
X012861Y023101D02*
X012341Y023101D01*
X012341Y022101D02*
X012861Y022101D01*
X012861Y021101D02*
X012341Y021101D01*
X012341Y020101D02*
X012861Y020101D01*
X012861Y019101D02*
X012341Y019101D01*
X012341Y018101D02*
X012861Y018101D01*
X010861Y018101D02*
X010341Y018101D01*
X010341Y019101D02*
X010861Y019101D01*
X010861Y020101D02*
X010341Y020101D01*
X010341Y021101D02*
X010861Y021101D01*
X015601Y020861D02*
X015601Y020341D01*
X015601Y021841D02*
X015601Y022361D01*
X015601Y024841D02*
X015601Y025361D01*
X012861Y025101D02*
X012341Y025101D01*
X012341Y026101D02*
X012861Y026101D01*
X010861Y026101D02*
X010341Y026101D01*
X010341Y025101D02*
X010861Y025101D01*
X008101Y025341D02*
X008101Y025861D01*
X007101Y025861D02*
X007101Y025341D01*
X006101Y025341D02*
X006101Y025861D01*
X005101Y025861D02*
X005101Y025341D01*
X015601Y017861D02*
X015601Y017341D01*
X021601Y016361D02*
X021601Y015841D01*
X023101Y015841D02*
X023101Y016361D01*
X024101Y016361D02*
X024101Y015841D01*
X025101Y015841D02*
X025101Y016361D01*
X026101Y016361D02*
X026101Y015841D01*
X027101Y015841D02*
X027101Y016361D01*
X028101Y016361D02*
X028101Y015841D01*
X029101Y015841D02*
X029101Y016361D01*
X030101Y016361D02*
X030101Y015841D01*
X031101Y015841D02*
X031101Y016361D01*
X032101Y016361D02*
X032101Y015841D01*
X033101Y015841D02*
X033101Y016361D01*
X034101Y016361D02*
X034101Y015841D01*
X035101Y015841D02*
X035101Y016361D01*
X036101Y016361D02*
X036101Y015841D01*
X036601Y017341D02*
X036601Y017861D01*
X036601Y020341D02*
X036601Y020861D01*
X036601Y021841D02*
X036601Y022361D01*
X036601Y024841D02*
X036601Y025361D01*
X043341Y024101D02*
X043861Y024101D01*
X043861Y023101D02*
X043341Y023101D01*
X043341Y022101D02*
X043861Y022101D01*
X045341Y022101D02*
X045861Y022101D01*
X045861Y023101D02*
X045341Y023101D01*
X045341Y024101D02*
X045861Y024101D01*
X045861Y021101D02*
X045341Y021101D01*
X045341Y020101D02*
X045861Y020101D01*
X045861Y019101D02*
X045341Y019101D01*
X045341Y018101D02*
X045861Y018101D01*
X045861Y017101D02*
X045341Y017101D01*
X045341Y016101D02*
X045861Y016101D01*
X043861Y016101D02*
X043341Y016101D01*
X043341Y017101D02*
X043861Y017101D01*
X043861Y018101D02*
X043341Y018101D01*
X043341Y019101D02*
X043861Y019101D01*
X043861Y020101D02*
X043341Y020101D01*
X043341Y021101D02*
X043861Y021101D01*
X029601Y020861D02*
X029601Y020341D01*
X029601Y021841D02*
X029601Y022361D01*
X029601Y024841D02*
X029601Y025361D01*
X022601Y025361D02*
X022601Y024841D01*
X022601Y022361D02*
X022601Y021841D01*
X022601Y020861D02*
X022601Y020341D01*
X022601Y017861D02*
X022601Y017341D01*
X029601Y017341D02*
X029601Y017861D01*
X030101Y013361D02*
X030101Y012841D01*
X029101Y012841D02*
X029101Y013361D01*
X028101Y013361D02*
X028101Y012841D01*
X027101Y012841D02*
X027101Y013361D01*
X026101Y013361D02*
X026101Y012841D01*
X025101Y012841D02*
X025101Y013361D01*
X024101Y013361D02*
X024101Y012841D01*
X023101Y012841D02*
X023101Y013361D01*
X021601Y013361D02*
X021601Y012841D01*
X022601Y011861D02*
X022601Y011341D01*
X022601Y008861D02*
X022601Y008341D01*
X022601Y007361D02*
X022601Y006841D01*
X022601Y004361D02*
X022601Y003841D01*
X029601Y003841D02*
X029601Y004361D01*
X029601Y006841D02*
X029601Y007361D01*
X029601Y008341D02*
X029601Y008861D01*
X029601Y011341D02*
X029601Y011861D01*
X031101Y012841D02*
X031101Y013361D01*
X032101Y013361D02*
X032101Y012841D01*
X033101Y012841D02*
X033101Y013361D01*
X034101Y013361D02*
X034101Y012841D01*
X035101Y012841D02*
X035101Y013361D01*
X036101Y013361D02*
X036101Y012841D01*
X036601Y011861D02*
X036601Y011341D01*
X036601Y008861D02*
X036601Y008341D01*
X036601Y007361D02*
X036601Y006841D01*
X036601Y004361D02*
X036601Y003841D01*
X043341Y003601D02*
X043861Y003601D01*
X043861Y004601D02*
X043341Y004601D01*
X043341Y005601D02*
X043861Y005601D01*
X043861Y006601D02*
X043341Y006601D01*
X043341Y007601D02*
X043861Y007601D01*
X043861Y008601D02*
X043341Y008601D01*
X043341Y009601D02*
X043861Y009601D01*
X043861Y010601D02*
X043341Y010601D01*
X043341Y011601D02*
X043861Y011601D01*
X045341Y011601D02*
X045861Y011601D01*
X045861Y010601D02*
X045341Y010601D01*
X045341Y009601D02*
X045861Y009601D01*
X045861Y008601D02*
X045341Y008601D01*
X045341Y007601D02*
X045861Y007601D01*
X045861Y006601D02*
X045341Y006601D01*
X045341Y005601D02*
X045861Y005601D01*
X045861Y004601D02*
X045341Y004601D01*
X045341Y003601D02*
X045861Y003601D01*
X015601Y003841D02*
X015601Y004361D01*
X013861Y005601D02*
X013341Y005601D01*
X013341Y006601D02*
X013861Y006601D01*
X015601Y006841D02*
X015601Y007361D01*
X015601Y008341D02*
X015601Y008861D01*
X013861Y008601D02*
X013341Y008601D01*
X013341Y007601D02*
X013861Y007601D01*
X010861Y007601D02*
X010341Y007601D01*
X010341Y008601D02*
X010861Y008601D01*
X010861Y009601D02*
X010341Y009601D01*
X008861Y009601D02*
X008341Y009601D01*
X008341Y010601D02*
X008861Y010601D01*
X008861Y011601D02*
X008341Y011601D01*
X013341Y009601D02*
X013861Y009601D01*
X015601Y011341D02*
X015601Y011861D01*
X008861Y008601D02*
X008341Y008601D01*
X008341Y007601D02*
X008861Y007601D01*
X008861Y006601D02*
X008341Y006601D01*
X008341Y005601D02*
X008861Y005601D01*
X010341Y005601D02*
X010861Y005601D01*
X010861Y006601D02*
X010341Y006601D01*
X008861Y004601D02*
X008341Y004601D01*
D12*
X007101Y005601D03*
X003101Y005601D03*
X017101Y004101D03*
X018101Y007601D03*
X017101Y008101D03*
X018101Y011601D03*
X024101Y008101D03*
X025101Y007601D03*
X031101Y008101D03*
X032101Y007601D03*
X038101Y008101D03*
X039101Y007601D03*
X038101Y004101D03*
X031101Y004101D03*
X024101Y004101D03*
X025101Y011601D03*
X032101Y011601D03*
X039101Y011601D03*
X038101Y018101D03*
X039101Y021101D03*
X038101Y022101D03*
X039101Y025101D03*
X032101Y025101D03*
X031101Y022101D03*
X032101Y021101D03*
X031101Y018101D03*
X025101Y021101D03*
X024101Y022101D03*
X025101Y025101D03*
X018101Y025101D03*
X017101Y022101D03*
X018101Y021101D03*
X017101Y018101D03*
X024101Y018101D03*
X008101Y016901D03*
X008101Y020901D03*
D13*
X010601Y015801D03*
X014601Y014601D03*
X017601Y015101D03*
D14*
X017601Y014101D03*
X014601Y015601D03*
X010601Y014401D03*
D15*
X007601Y013601D03*
X006601Y013601D03*
X007101Y014351D03*
X003501Y012601D03*
X005501Y010351D03*
X006001Y009601D03*
X005001Y009601D03*
X003501Y009601D03*
X003501Y007801D03*
X006501Y007801D03*
X010601Y012101D03*
X013601Y012101D03*
X019601Y009601D03*
X020601Y009601D03*
X020101Y010351D03*
X020101Y013101D03*
X020101Y016101D03*
X020601Y019601D03*
X019601Y019601D03*
X020101Y020351D03*
X026601Y019601D03*
X027101Y020351D03*
X027601Y019601D03*
X033601Y019601D03*
X034601Y019601D03*
X034101Y020351D03*
X040601Y019601D03*
X041101Y020351D03*
X041601Y019601D03*
X047601Y020601D03*
X048601Y020601D03*
X050101Y020601D03*
X051101Y020601D03*
X051101Y018101D03*
X050101Y018101D03*
X048601Y018101D03*
X047601Y018101D03*
X052101Y017101D03*
X053101Y017101D03*
X051101Y015601D03*
X050101Y015601D03*
X048601Y015601D03*
X047601Y015601D03*
X047601Y013101D03*
X048601Y013101D03*
X050101Y013101D03*
X051101Y013101D03*
X052101Y014101D03*
X053101Y014101D03*
X051101Y010601D03*
X050101Y010601D03*
X048601Y010601D03*
X047601Y010601D03*
X047601Y008101D03*
X048601Y008101D03*
X050101Y008101D03*
X051101Y008101D03*
X051101Y005601D03*
X050101Y005601D03*
X048601Y005601D03*
X047601Y005601D03*
X041601Y006101D03*
X040601Y006101D03*
X041101Y006851D03*
X041601Y009601D03*
X041101Y010351D03*
X040601Y009601D03*
X034601Y009601D03*
X033601Y009601D03*
X034101Y010351D03*
X034101Y006851D03*
X034601Y006101D03*
X033601Y006101D03*
X027601Y006601D03*
X026601Y006601D03*
X027101Y007351D03*
X027601Y009601D03*
X027101Y010351D03*
X026601Y009601D03*
X020101Y006851D03*
X020601Y006101D03*
X019601Y006101D03*
X047601Y023101D03*
X048601Y023101D03*
X050101Y023101D03*
X051101Y023101D03*
X041601Y023601D03*
X041101Y024351D03*
X040601Y023601D03*
X034601Y023601D03*
X033601Y023601D03*
X034101Y024351D03*
X027601Y023601D03*
X027101Y024351D03*
X026601Y023601D03*
X020601Y023601D03*
X019601Y023601D03*
X020101Y024351D03*
D16*
X004201Y021801D02*
X003601Y021801D01*
X003601Y020801D02*
X004201Y020801D01*
X004201Y019801D02*
X003601Y019801D01*
X003601Y018801D02*
X004201Y018801D01*
X005701Y002801D02*
X005701Y002201D01*
X006701Y002201D02*
X006701Y002801D01*
X007701Y002801D02*
X007701Y002201D01*
X008701Y002201D02*
X008701Y002801D01*
X009701Y002801D02*
X009701Y002201D01*
D17*
X012601Y002701D03*
X014601Y002601D03*
X016601Y002601D03*
X021601Y002601D03*
X023601Y002601D03*
X028101Y002601D03*
X030601Y002601D03*
X035101Y002601D03*
X037601Y002601D03*
X038101Y026601D03*
X035601Y026601D03*
X031101Y026601D03*
X028601Y026601D03*
X024101Y026601D03*
X021601Y026601D03*
X017101Y026601D03*
X014601Y026601D03*
D18*
X002601Y026601D03*
X002601Y002601D03*
X052101Y002601D03*
X052101Y026601D03*
D19*
X004181Y017101D02*
X003621Y017101D01*
X003621Y016101D02*
X004181Y016101D01*
X004181Y015101D02*
X003621Y015101D01*
X003621Y014101D02*
X004181Y014101D01*
D20*
X006501Y017501D03*
X006501Y018501D03*
X006501Y019501D03*
D21*
X002601Y002601D02*
X004201Y001001D01*
X008701Y001001D01*
X008701Y002501D01*
X008701Y002601D01*
X007901Y003401D01*
X007101Y003401D01*
X007101Y005601D01*
X009101Y009101D02*
X010601Y007601D01*
X010601Y008601D02*
X012601Y006601D01*
X013601Y006601D01*
X013601Y008601D02*
X014401Y009401D01*
X019101Y009401D01*
X019401Y009101D01*
X020101Y009101D01*
X020601Y009601D01*
X013601Y012101D02*
X013101Y011601D01*
X009901Y011601D01*
X007901Y013601D01*
X007601Y013601D01*
X010101Y016301D02*
X010601Y015801D01*
X010101Y016301D02*
X007801Y016301D01*
X006601Y017501D01*
X006501Y017501D01*
X005201Y018801D01*
X003901Y018801D01*
X003801Y018801D01*
X003001Y019601D01*
X003001Y022601D01*
X000901Y022601D01*
X000901Y024801D01*
X002701Y026601D01*
X004201Y028101D01*
X050701Y028101D01*
X052151Y026651D01*
X052101Y026601D01*
X052151Y026651D02*
X052301Y026501D01*
X052401Y026501D01*
X053901Y025001D01*
X053901Y012101D01*
X053301Y012101D01*
X053101Y011901D01*
X051301Y011901D01*
X051101Y012101D01*
X045101Y012101D01*
X044801Y011801D01*
X043801Y011801D01*
X043601Y011601D01*
X053901Y012101D02*
X053901Y004401D01*
X052101Y002601D01*
X050501Y001001D01*
X008701Y001001D01*
X002601Y002601D02*
X000901Y004301D01*
X000901Y022601D01*
X003001Y022601D02*
X005101Y022601D01*
X003901Y021801D02*
X004301Y021401D01*
X007601Y021401D01*
X008101Y020901D01*
X002701Y026601D02*
X002601Y026601D01*
X020601Y019601D02*
X021101Y019101D01*
X027101Y019101D01*
X027601Y019601D01*
X028001Y019601D01*
X028501Y019101D01*
X034101Y019101D01*
X034151Y019151D01*
X034201Y019101D01*
X041101Y019101D01*
X041601Y019601D01*
X034601Y019601D02*
X034151Y019151D01*
X030001Y014801D02*
X029701Y015101D01*
X017601Y015101D01*
X017101Y014601D01*
X014601Y014601D01*
X006501Y009101D02*
X006001Y009601D01*
X006501Y009101D02*
X004001Y009101D01*
X003501Y009601D01*
X006501Y009101D02*
X009101Y009101D01*
X020601Y006101D02*
X027101Y006101D01*
X027601Y006601D01*
X027701Y006601D01*
X028701Y005601D01*
X034001Y005601D01*
X034501Y006101D01*
X034601Y006101D01*
X035101Y005601D01*
X041101Y005601D01*
X041601Y006101D01*
D22*
X041101Y007701D03*
X042601Y008501D03*
X042201Y009601D03*
X042501Y010101D03*
X040501Y010301D03*
X037201Y010801D03*
X036001Y011201D03*
X036701Y012801D03*
X034501Y013801D03*
X035201Y014701D03*
X038901Y015001D03*
X042501Y014601D03*
X045301Y013401D03*
X048101Y013801D03*
X048801Y014601D03*
X049201Y015601D03*
X050601Y016501D03*
X048701Y017201D03*
X047701Y016801D03*
X046501Y019401D03*
X046901Y020001D03*
X049601Y020901D03*
X047001Y021501D03*
X043001Y019601D03*
X036001Y019901D03*
X032101Y018401D03*
X031401Y019601D03*
X031801Y020001D03*
X028201Y018801D03*
X025901Y018301D03*
X024801Y018101D03*
X025501Y019601D03*
X027301Y021201D03*
X031501Y023401D03*
X032501Y023201D03*
X030301Y024901D03*
X029201Y024401D03*
X034001Y027201D03*
X021501Y022001D03*
X019201Y021601D03*
X019101Y022601D03*
X018401Y022401D03*
X018201Y024101D03*
X014701Y019601D03*
X014101Y019001D03*
X013701Y018201D03*
X015301Y016201D03*
X018901Y014601D03*
X021001Y012801D03*
X021901Y011401D03*
X024801Y010001D03*
X026401Y010401D03*
X030501Y011601D03*
X031101Y010801D03*
X031601Y010401D03*
X031501Y009101D03*
X032601Y009101D03*
X028701Y013801D03*
X029201Y014601D03*
X030001Y014801D03*
X030701Y017301D03*
X027501Y017201D03*
X018201Y018601D03*
X017501Y019001D03*
X009701Y017701D03*
X007601Y017301D03*
X010901Y010501D03*
X011801Y008501D03*
X014301Y008201D03*
X020301Y008201D03*
X023701Y005601D03*
X022001Y005401D03*
X026401Y003401D03*
X045601Y002001D03*
X046501Y003601D03*
X048901Y004101D03*
X046701Y007701D03*
X047301Y008701D03*
X046301Y010001D03*
X050001Y011201D03*
X051401Y012401D03*
X053401Y011601D03*
X053201Y011101D03*
X052401Y011201D03*
X052001Y008401D03*
X053201Y019101D03*
X052801Y020001D03*
X052001Y023801D03*
X052401Y024201D03*
X050101Y024701D03*
X049301Y024501D03*
X048001Y025501D03*
X005201Y001501D03*
D23*
X005401Y001701D01*
X005901Y001701D01*
X006701Y002501D01*
X008601Y004601D02*
X009801Y003401D01*
X025901Y003401D01*
X026301Y003001D01*
X027301Y003001D01*
X027701Y003401D01*
X042501Y003401D01*
X043201Y004101D01*
X048901Y004101D01*
X049701Y004501D02*
X049701Y001601D01*
X015601Y001601D01*
X014601Y002601D01*
X013501Y004801D02*
X025001Y004801D01*
X026401Y003401D01*
X027401Y002801D02*
X024301Y002801D01*
X023901Y003201D01*
X022201Y003201D01*
X021601Y002601D01*
X023601Y002601D02*
X024201Y002001D01*
X045601Y002001D01*
X046001Y003101D02*
X038001Y003101D01*
X037901Y003201D01*
X027801Y003201D01*
X027401Y002801D01*
X023701Y005601D02*
X023501Y005801D01*
X021901Y005801D01*
X021701Y005601D01*
X013601Y005601D01*
X013501Y004801D02*
X011201Y007101D01*
X010201Y007101D01*
X010001Y007301D01*
X008901Y007301D01*
X008601Y007601D01*
X009901Y007101D02*
X010401Y006601D01*
X010601Y006601D01*
X009901Y007101D02*
X007201Y007101D01*
X006501Y007801D01*
X005001Y009601D02*
X005001Y013601D01*
X003501Y013601D01*
X003101Y014001D01*
X003101Y015601D01*
X003901Y015601D01*
X003901Y016101D01*
X003901Y015601D02*
X010101Y015601D01*
X010401Y015301D01*
X010901Y015301D01*
X011501Y015901D01*
X009701Y017701D01*
X010601Y018101D02*
X008401Y018101D01*
X007601Y017301D01*
X006501Y018501D02*
X006601Y018601D01*
X018201Y018601D01*
X017501Y019001D02*
X016301Y019001D01*
X015301Y020001D01*
X012701Y020001D01*
X012601Y020101D01*
X011101Y020601D02*
X015601Y020601D01*
X019901Y020601D01*
X020101Y020401D01*
X020101Y020351D01*
X020101Y020301D01*
X020101Y020351D02*
X020101Y020101D01*
X020701Y020101D01*
X020901Y019901D01*
X022801Y019901D01*
X023001Y020101D01*
X026701Y020101D01*
X026901Y019901D01*
X027301Y019901D01*
X027501Y020101D01*
X027701Y020101D01*
X027901Y019901D01*
X029801Y019901D01*
X029901Y020001D01*
X031801Y020001D01*
X031401Y019601D02*
X033601Y019601D01*
X034101Y020351D02*
X034101Y020401D01*
X035001Y021301D01*
X036701Y021301D01*
X037001Y021601D01*
X043101Y021601D01*
X043601Y021101D01*
X044301Y020601D02*
X040901Y020601D01*
X036601Y020601D01*
X037001Y020101D02*
X036801Y019901D01*
X036001Y019901D01*
X037001Y020101D02*
X040701Y020101D01*
X040901Y019901D01*
X041301Y019901D01*
X041501Y020101D01*
X043601Y020101D01*
X044301Y020601D02*
X044301Y022401D01*
X043601Y023101D01*
X042201Y023601D02*
X041401Y022801D01*
X028901Y022801D01*
X027301Y021201D01*
X026901Y020801D02*
X029401Y020801D01*
X029601Y020601D01*
X033901Y020601D01*
X034101Y020401D01*
X032401Y018601D02*
X032201Y018801D01*
X028201Y018801D01*
X026601Y019601D02*
X025501Y019601D01*
X024901Y020601D02*
X026701Y020601D01*
X026901Y020801D01*
X027101Y020401D02*
X027101Y020351D01*
X027101Y020401D02*
X022801Y020401D01*
X022601Y020601D01*
X022401Y020801D01*
X020001Y020801D01*
X019201Y021601D01*
X018301Y022001D02*
X021501Y022001D01*
X021601Y022401D02*
X022101Y021901D01*
X022101Y021301D01*
X024201Y021301D01*
X024901Y020601D01*
X024101Y018801D02*
X020801Y018801D01*
X020101Y019501D01*
X020101Y020101D01*
X018301Y022001D02*
X017701Y021401D01*
X015401Y021401D01*
X015201Y021601D01*
X011101Y021601D01*
X010601Y021101D01*
X011101Y020601D02*
X010601Y020101D01*
X011101Y019601D02*
X014701Y019601D01*
X014101Y019001D02*
X012701Y019001D01*
X012601Y019101D01*
X012601Y018101D02*
X014501Y016201D01*
X015301Y016201D01*
X014801Y015801D02*
X014601Y015601D01*
X011801Y015601D01*
X011501Y015901D01*
X012601Y014101D02*
X013601Y015101D01*
X014801Y015101D01*
X015301Y015601D01*
X021101Y015601D01*
X021601Y016101D01*
X020801Y016801D02*
X020101Y016101D01*
X019801Y015801D01*
X014801Y015801D01*
X016901Y017601D02*
X021701Y017601D01*
X022401Y018301D01*
X023201Y018301D01*
X024301Y017201D01*
X027501Y017201D01*
X025901Y018301D02*
X030201Y018301D01*
X030901Y017601D01*
X035501Y017601D01*
X036501Y016601D01*
X044301Y016601D01*
X044301Y017401D01*
X043601Y018101D01*
X043101Y017601D02*
X037501Y017601D01*
X036701Y018401D01*
X032101Y018401D01*
X032401Y018601D02*
X046001Y018601D01*
X046201Y018801D01*
X050401Y018801D01*
X051101Y018101D01*
X051601Y018201D02*
X051601Y016101D01*
X050601Y016101D01*
X050101Y015601D01*
X049201Y015601D02*
X048001Y016801D01*
X047701Y016801D01*
X046701Y017201D02*
X048701Y017201D01*
X048101Y017601D02*
X047601Y018101D01*
X047301Y018401D02*
X047501Y018601D01*
X049601Y018601D01*
X050101Y018101D01*
X049501Y017601D02*
X048101Y017601D01*
X049501Y017601D02*
X050601Y016501D01*
X048601Y015601D02*
X048001Y015001D01*
X038901Y015001D01*
X039701Y013801D02*
X036701Y010801D01*
X031101Y010801D01*
X031301Y011101D02*
X031201Y011201D01*
X030101Y011201D01*
X029001Y010101D01*
X027501Y010101D01*
X027301Y009901D01*
X026901Y009901D01*
X026401Y010401D01*
X020101Y010401D01*
X020101Y010351D01*
X020501Y010101D02*
X020301Y009901D01*
X019901Y009901D01*
X019301Y010501D01*
X010901Y010501D01*
X010201Y010901D02*
X008001Y013101D01*
X005901Y013101D01*
X003901Y015101D01*
X007101Y014351D02*
X007101Y014301D01*
X007301Y014101D01*
X008601Y014101D01*
X010601Y012101D01*
X012601Y014101D01*
X017601Y014101D01*
X018901Y014601D02*
X019301Y014201D01*
X034901Y014201D01*
X036001Y013101D01*
X036101Y013101D01*
X036701Y012801D02*
X035501Y011601D01*
X032101Y011601D01*
X031301Y011101D02*
X035901Y011101D01*
X036001Y011201D01*
X037201Y010801D02*
X041301Y010801D01*
X041401Y010701D01*
X043501Y010701D01*
X043601Y010601D01*
X044001Y010101D02*
X042501Y010101D01*
X042201Y009601D02*
X041501Y010301D01*
X041101Y010301D01*
X041101Y010351D01*
X040501Y010301D02*
X040201Y010001D01*
X035301Y010001D01*
X035001Y010301D01*
X034101Y010301D01*
X034101Y010351D01*
X034501Y010101D02*
X034301Y009901D01*
X033901Y009901D01*
X033401Y010401D01*
X031601Y010401D01*
X030501Y009301D01*
X027901Y009301D01*
X027701Y009101D01*
X023001Y009101D01*
X022801Y009301D01*
X021401Y009301D01*
X020301Y008201D01*
X019901Y007301D02*
X022401Y007301D01*
X022601Y007101D01*
X026201Y007101D01*
X026401Y007301D01*
X027101Y007301D01*
X027101Y007351D01*
X027501Y007101D02*
X029601Y007101D01*
X033901Y007101D01*
X034101Y006901D01*
X034101Y006851D01*
X034101Y006801D01*
X034501Y006801D01*
X034901Y006401D01*
X036801Y006401D01*
X037001Y006601D01*
X040701Y006601D01*
X040901Y006401D01*
X041301Y006401D01*
X041501Y006601D01*
X042601Y006601D01*
X043601Y005601D01*
X044001Y005101D02*
X022301Y005101D01*
X022001Y005401D01*
X022401Y006401D02*
X022201Y006601D01*
X020501Y006601D01*
X020301Y006401D01*
X019901Y006401D01*
X019701Y006601D01*
X019501Y006601D01*
X019301Y006401D01*
X015401Y006401D01*
X014701Y007101D01*
X013201Y007101D01*
X011801Y008501D01*
X014301Y008201D02*
X014701Y007801D01*
X016701Y007801D01*
X017401Y007101D01*
X019701Y007101D01*
X019901Y007301D01*
X020101Y006901D02*
X020101Y006851D01*
X020101Y006901D02*
X015801Y006901D01*
X015601Y007101D01*
X017101Y008101D02*
X018301Y008101D01*
X018601Y007801D01*
X022701Y007801D01*
X023501Y008601D01*
X024801Y008601D01*
X025501Y007901D01*
X029801Y007901D01*
X030501Y008601D01*
X031801Y008601D01*
X032501Y007901D01*
X036701Y007901D01*
X037001Y007601D01*
X038301Y007601D01*
X038801Y008101D01*
X046801Y008101D01*
X047301Y007601D01*
X048101Y007601D01*
X048601Y008101D01*
X048201Y009101D02*
X049701Y007601D01*
X050601Y007601D01*
X051101Y008101D01*
X052001Y008401D02*
X049701Y006101D01*
X045001Y006101D01*
X044001Y005101D01*
X045601Y004601D02*
X046601Y005601D01*
X047601Y005601D01*
X048601Y005601D02*
X049701Y004501D01*
X046501Y003601D02*
X046001Y003101D01*
X043601Y006601D02*
X042501Y007701D01*
X041101Y007701D01*
X042401Y008301D02*
X038301Y008301D01*
X038101Y008101D01*
X037201Y008901D02*
X036801Y009301D01*
X034901Y009301D01*
X034701Y009101D01*
X032601Y009101D01*
X031501Y009101D02*
X030101Y009101D01*
X029601Y008601D01*
X027501Y007101D02*
X027301Y006901D01*
X026901Y006901D01*
X026701Y007101D01*
X026501Y007101D01*
X025801Y006401D01*
X022401Y006401D01*
X020501Y010101D02*
X024701Y010101D01*
X024801Y010001D01*
X025401Y012101D02*
X027101Y010401D01*
X027101Y010351D01*
X027101Y010401D02*
X029001Y012301D01*
X031301Y012301D01*
X032101Y013101D01*
X032101Y012101D02*
X033101Y013101D01*
X034501Y013801D02*
X028701Y013801D01*
X029401Y014401D02*
X029201Y014601D01*
X029401Y014401D02*
X035001Y014401D01*
X035201Y014201D01*
X050001Y014201D01*
X051101Y013101D01*
X051401Y012401D02*
X053101Y014101D01*
X051901Y015101D02*
X053101Y016301D01*
X053101Y017101D01*
X051601Y018201D02*
X050801Y019001D01*
X045701Y019001D01*
X045601Y019101D01*
X045901Y018401D02*
X047301Y018401D01*
X045901Y018401D02*
X045601Y018101D01*
X046701Y017201D02*
X045601Y016101D01*
X043601Y016101D02*
X042901Y015401D01*
X024801Y015401D01*
X024101Y016101D01*
X020801Y016801D02*
X030401Y016801D01*
X031101Y016101D01*
X030701Y017301D02*
X029901Y017301D01*
X029601Y017601D01*
X024801Y018101D02*
X024101Y018801D01*
X021601Y022401D02*
X019301Y022401D01*
X019101Y022601D01*
X019401Y022901D02*
X028701Y022901D01*
X028801Y023001D01*
X032301Y023001D01*
X032501Y023201D01*
X032401Y023801D02*
X033101Y023101D01*
X034101Y023101D01*
X034101Y023701D01*
X034501Y024101D01*
X040701Y024101D01*
X040901Y023901D01*
X041301Y023901D01*
X042001Y024601D01*
X049201Y024601D01*
X049301Y024501D01*
X049901Y024901D02*
X040001Y024901D01*
X039101Y025801D01*
X030201Y025801D01*
X030001Y026001D01*
X024701Y026001D01*
X024101Y026601D01*
X023801Y027201D02*
X034001Y027201D01*
X031701Y026001D02*
X031101Y026601D01*
X031701Y026001D02*
X039201Y026001D01*
X040101Y025101D01*
X051501Y025101D01*
X052401Y024201D01*
X052801Y024101D02*
X052801Y025301D01*
X048701Y025301D01*
X046401Y027601D01*
X015601Y027601D01*
X014601Y026601D01*
X014301Y026001D02*
X022601Y026001D01*
X023801Y027201D01*
X022601Y025101D02*
X023301Y024401D01*
X027101Y024401D01*
X027101Y024351D01*
X027501Y024101D02*
X027301Y023901D01*
X026901Y023901D01*
X026701Y024101D01*
X020501Y024101D01*
X020301Y023901D01*
X019901Y023901D01*
X019701Y024101D01*
X018201Y024101D01*
X019401Y023201D02*
X019501Y023101D01*
X022101Y023101D01*
X022201Y023201D01*
X026401Y023201D01*
X026501Y023101D01*
X028401Y023101D01*
X028701Y023401D01*
X031501Y023401D01*
X032401Y023801D02*
X028001Y023801D01*
X027701Y024101D01*
X027501Y024101D01*
X028801Y024301D02*
X028801Y025101D01*
X029601Y025101D01*
X029801Y025801D02*
X030501Y025101D01*
X030301Y024901D01*
X030501Y025101D02*
X031001Y025601D01*
X036101Y025601D01*
X036601Y025101D01*
X037101Y024601D01*
X040901Y024601D01*
X041101Y024401D01*
X041101Y024351D01*
X042201Y023601D02*
X051801Y023601D01*
X052001Y023801D01*
X052101Y023401D02*
X051401Y023401D01*
X051101Y023101D01*
X050201Y022601D02*
X046101Y022601D01*
X045601Y023101D01*
X045601Y022101D02*
X050201Y022101D01*
X053201Y019101D01*
X052801Y020001D02*
X050201Y022601D01*
X052101Y023401D02*
X052801Y024101D01*
X050101Y024701D02*
X049901Y024901D01*
X048001Y025501D02*
X046901Y026601D01*
X038101Y026601D01*
X034101Y024351D02*
X034101Y024301D01*
X033901Y024101D01*
X029401Y024101D01*
X029301Y024001D01*
X029101Y024001D01*
X028801Y024301D01*
X029201Y024401D02*
X031401Y024401D01*
X032101Y025101D01*
X029801Y025801D02*
X015401Y025801D01*
X015201Y025601D01*
X011101Y025601D01*
X010601Y025101D01*
X010601Y026101D02*
X011101Y026601D01*
X013701Y026601D01*
X014301Y026001D01*
X015601Y025101D02*
X016101Y024601D01*
X019901Y024601D01*
X020101Y024401D01*
X020101Y024351D01*
X019401Y023201D02*
X014501Y023201D01*
X012601Y025101D01*
X013801Y023601D02*
X010101Y023601D01*
X008101Y025601D01*
X013801Y023601D02*
X014401Y023001D01*
X019301Y023001D01*
X019401Y022901D01*
X018401Y022401D02*
X018001Y022801D01*
X015401Y022801D01*
X015201Y022601D01*
X011101Y022601D01*
X010601Y022101D01*
X011101Y019601D02*
X010601Y019101D01*
X013701Y018201D02*
X013801Y018301D01*
X016201Y018301D01*
X016901Y017601D01*
X020801Y013801D02*
X022401Y013801D01*
X023101Y013101D01*
X022301Y012401D02*
X024401Y012401D01*
X025101Y013101D01*
X025401Y012101D02*
X021701Y012101D01*
X021001Y012801D01*
X021601Y013101D02*
X022301Y012401D01*
X021701Y012101D02*
X022201Y011601D01*
X022601Y011601D01*
X021901Y011401D02*
X021401Y010901D01*
X010201Y010901D01*
X020101Y013101D02*
X020801Y013801D01*
X030501Y011601D02*
X031001Y012101D01*
X032101Y012101D01*
X034501Y010101D02*
X034701Y010101D01*
X035001Y009801D01*
X036601Y009801D01*
X037301Y009101D01*
X043101Y009101D01*
X043601Y009601D01*
X044001Y010101D02*
X045001Y009101D01*
X048201Y009101D01*
X048401Y009601D02*
X050001Y011201D01*
X051101Y010601D02*
X051701Y011201D01*
X052401Y011201D01*
X053101Y011101D02*
X053201Y011101D01*
X053101Y011101D02*
X050101Y008101D01*
X047301Y008701D02*
X045701Y008701D01*
X045601Y008601D01*
X045701Y007701D02*
X046701Y007701D01*
X045701Y007701D02*
X045601Y007601D01*
X043601Y008601D02*
X043301Y008901D01*
X037201Y008901D01*
X036601Y007101D02*
X036801Y006901D01*
X041101Y006901D01*
X041101Y006851D01*
X042401Y008301D02*
X042601Y008501D01*
X045601Y009601D02*
X048401Y009601D01*
X047601Y010601D02*
X046901Y010601D01*
X046301Y010001D01*
X045601Y011601D02*
X053401Y011601D01*
X048101Y013801D02*
X039701Y013801D01*
X042501Y014601D02*
X035301Y014601D01*
X035201Y014701D01*
X039101Y011601D02*
X039601Y012101D01*
X044001Y012101D01*
X045301Y013401D01*
X048801Y014601D02*
X049301Y015101D01*
X051901Y015101D01*
X043601Y017101D02*
X043101Y017601D01*
X046501Y019401D02*
X046701Y019601D01*
X049101Y019601D01*
X050101Y020601D01*
X049601Y020901D02*
X049401Y021101D01*
X046801Y021101D01*
X045801Y020101D01*
X045601Y020101D01*
X046001Y020601D02*
X045001Y020601D01*
X044001Y019601D01*
X043001Y019601D01*
X041101Y020351D02*
X041101Y020401D01*
X040901Y020601D01*
X046001Y020601D02*
X046701Y021301D01*
X046801Y021301D01*
X047001Y021501D01*
X048001Y020001D02*
X048601Y020601D01*
X048001Y020001D02*
X046901Y020001D01*
M02*
