%
M48
M72
T01C0.0240
T02C0.0320
T03C0.0360
T04C0.0400
T05C0.0440
T06C0.0520
T07C0.1417
%
T01
X5201Y1501
X14301Y8201
X11801Y8501
X10901Y10501
X18901Y14601
X21001Y12801
X21901Y11401
X24801Y10001
X26401Y10401
X30501Y11601
X31101Y10801
X31601Y10401
X31501Y9101
X32601Y9101
X36001Y11201
X37201Y10801
X40501Y10301
X42201Y9601
X42501Y10101
X42601Y8501
X41101Y7701
X46301Y10001
X47301Y8701
X46701Y7701
X52001Y8401
X52401Y11201
X53201Y11101
X53401Y11601
X51401Y12401
X50001Y11201
X45301Y13401
X48101Y13801
X48801Y14601
X49201Y15601
X50601Y16501
X48701Y17201
X47701Y16801
X46501Y19401
X46901Y20001
X49601Y20901
X47001Y21501
X43001Y19601
X36001Y19901
X32101Y18401
X31401Y19601
X31801Y20001
X28201Y18801
X25901Y18301
X24801Y18101
X25501Y19601
X27301Y21201
X31501Y23401
X32501Y23201
X30301Y24901
X29201Y24401
X34001Y27201
X21501Y22001
X19201Y21601
X19101Y22601
X18401Y22401
X18201Y24101
X14701Y19601
X14101Y19001
X13701Y18201
X15301Y16201
X18201Y18601
X17501Y19001
X9701Y17701
X7601Y17301
X6501Y17501
X6501Y18501
X6501Y19501
X27501Y17201
X30701Y17301
X30001Y14801
X29201Y14601
X28701Y13801
X34501Y13801
X35201Y14701
X36701Y12801
X38901Y15001
X42501Y14601
X52801Y20001
X53201Y19101
X52001Y23801
X52401Y24201
X50101Y24701
X49301Y24501
X48001Y25501
X20301Y8201
X23701Y5601
X22001Y5401
X26401Y3401
X45601Y2001
X46501Y3601
X48901Y4101
T02
X48601Y5601
X47601Y5601
X45601Y5601
X45601Y6601
X43601Y6601
X43601Y5601
X43601Y4601
X43601Y3601
X45601Y3601
X45601Y4601
X41601Y6101
X40601Y6101
X41101Y6851
X43601Y7601
X43601Y8601
X45601Y8601
X45601Y7601
X47601Y8101
X48601Y8101
X50101Y8101
X51101Y8101
X51101Y5601
X50101Y5601
X45601Y9601
X45601Y10601
X45601Y11601
X43601Y11601
X43601Y10601
X43601Y9601
X41601Y9601
X41101Y10351
X40601Y9601
X36601Y8601
X34601Y9601
X33601Y9601
X34101Y10351
X36601Y11601
X36101Y13101
X35101Y13101
X34101Y13101
X33101Y13101
X32101Y13101
X31101Y13101
X30101Y13101
X29101Y13101
X28101Y13101
X27101Y13101
X26101Y13101
X25101Y13101
X24101Y13101
X23101Y13101
X21601Y13101
X20101Y13101
X17601Y14101
X17601Y15101
X20101Y16101
X21601Y16101
X23101Y16101
X24101Y16101
X25101Y16101
X26101Y16101
X27101Y16101
X28101Y16101
X29101Y16101
X30101Y16101
X31101Y16101
X32101Y16101
X33101Y16101
X34101Y16101
X35101Y16101
X36101Y16101
X36601Y17601
X34601Y19601
X33601Y19601
X34101Y20351
X36601Y20601
X36601Y22101
X34601Y23601
X33601Y23601
X34101Y24351
X36601Y25101
X40601Y23601
X41101Y24351
X41601Y23601
X43601Y24101
X43601Y23101
X43601Y22101
X45601Y22101
X45601Y23101
X45601Y24101
X47601Y23101
X48601Y23101
X50101Y23101
X51101Y23101
X51101Y20601
X50101Y20601
X48601Y20601
X47601Y20601
X45601Y21101
X45601Y20101
X43601Y20101
X43601Y21101
X41601Y19601
X41101Y20351
X40601Y19601
X43601Y19101
X43601Y18101
X45601Y18101
X45601Y19101
X47601Y18101
X48601Y18101
X50101Y18101
X51101Y18101
X52101Y17101
X53101Y17101
X51101Y15601
X50101Y15601
X48601Y15601
X47601Y15601
X45601Y16101
X45601Y17101
X43601Y17101
X43601Y16101
X47601Y13101
X48601Y13101
X50101Y13101
X51101Y13101
X52101Y14101
X53101Y14101
X51101Y10601
X50101Y10601
X48601Y10601
X47601Y10601
X36601Y7101
X34601Y6101
X33601Y6101
X34101Y6851
X29601Y7101
X27601Y6601
X26601Y6601
X27101Y7351
X29601Y8601
X27601Y9601
X27101Y10351
X26601Y9601
X29601Y11601
X22601Y11601
X20101Y10351
X20601Y9601
X19601Y9601
X22601Y8601
X22601Y7101
X20601Y6101
X19601Y6101
X20101Y6851
X22601Y4101
X29601Y4101
X36601Y4101
X15601Y4101
X13601Y5601
X13601Y6601
X15601Y7101
X13601Y7601
X13601Y8601
X15601Y8601
X13601Y9601
X15601Y11601
X13601Y12101
X10601Y12101
X8601Y11601
X8601Y10601
X8601Y9601
X10601Y9601
X10601Y8601
X10601Y7601
X8601Y7601
X8601Y8601
X6501Y7801
X8601Y6601
X8601Y5601
X10601Y5601
X10601Y6601
X8601Y4601
X3501Y7801
X3501Y9601
X5001Y9601
X5501Y10351
X6001Y9601
X3501Y12601
X6601Y13601
X7601Y13601
X7101Y14351
X10601Y14401
X10601Y15801
X10601Y18101
X10601Y19101
X10601Y20101
X10601Y21101
X10601Y22101
X10601Y23101
X10601Y24101
X10601Y25101
X10601Y26101
X12601Y26101
X12601Y25101
X12601Y24101
X12601Y23101
X12601Y22101
X12601Y21101
X12601Y20101
X12601Y19101
X12601Y18101
X15601Y17601
X14601Y15601
X14601Y14601
X22601Y17601
X20601Y19601
X19601Y19601
X20101Y20351
X22601Y20601
X22601Y22101
X20601Y23601
X19601Y23601
X20101Y24351
X22601Y25101
X26601Y23601
X27101Y24351
X27601Y23601
X29601Y25101
X29601Y22101
X29601Y20601
X27601Y19601
X27101Y20351
X26601Y19601
X29601Y17601
X15601Y20601
X15601Y22101
X15601Y25101
X8101Y25601
X7101Y25601
X6101Y25601
X5101Y25601
X5101Y22601
X6101Y22601
X7101Y22601
X8101Y22601
T03
X3901Y17101
X3901Y16101
X3901Y15101
X3901Y14101
T04
X3901Y18801
X3901Y19801
X3901Y20801
X3901Y21801
X5701Y2501
X6701Y2501
X7701Y2501
X8701Y2501
X9701Y2501
T05
X7101Y5601
X3101Y5601
X17101Y4101
X18101Y7601
X17101Y8101
X18101Y11601
X24101Y8101
X25101Y7601
X31101Y8101
X32101Y7601
X38101Y8101
X39101Y7601
X38101Y4101
X31101Y4101
X24101Y4101
X25101Y11601
X32101Y11601
X39101Y11601
X38101Y18101
X39101Y21101
X38101Y22101
X39101Y25101
X32101Y25101
X31101Y22101
X32101Y21101
X31101Y18101
X25101Y21101
X24101Y22101
X25101Y25101
X18101Y25101
X17101Y22101
X18101Y21101
X17101Y18101
X24101Y18101
X8101Y16901
X8101Y20901
T06
X14601Y26601
X17101Y26601
X21601Y26601
X24101Y26601
X28601Y26601
X31101Y26601
X35601Y26601
X38101Y26601
X12601Y2701
X14601Y2601
X16601Y2601
X21601Y2601
X23601Y2601
X28101Y2601
X30601Y2601
X35101Y2601
X37601Y2601
T07
X2601Y2601
X2601Y26601
X52101Y26601
X52101Y2601
M30
