G75*
G70*
%OFA0B0*%
%FSLAX24Y24*%
%IPPOS*%
%LPD*%
%AMOC8*
5,1,8,0,0,1.08239X$1,22.5*
%
%ADD10C,0.0000*%
%ADD11C,0.0520*%
%ADD12C,0.0660*%
%ADD13OC8,0.0630*%
%ADD14C,0.0630*%
%ADD15OC8,0.0520*%
%ADD16C,0.0600*%
%ADD17OC8,0.0850*%
%ADD18C,0.2300*%
%ADD19C,0.0560*%
%ADD20C,0.0440*%
%ADD21C,0.0240*%
%ADD22OC8,0.0400*%
%ADD23C,0.0100*%
D10*
X000101Y000101D02*
X000101Y028971D01*
X054593Y028971D01*
X054593Y000101D01*
X000101Y000101D01*
D11*
X008341Y004601D02*
X008861Y004601D01*
X008861Y005601D02*
X008341Y005601D01*
X008341Y006601D02*
X008861Y006601D01*
X010341Y006601D02*
X010861Y006601D01*
X010861Y005601D02*
X010341Y005601D01*
X013341Y005601D02*
X013861Y005601D01*
X013861Y006601D02*
X013341Y006601D01*
X013341Y007601D02*
X013861Y007601D01*
X013861Y008601D02*
X013341Y008601D01*
X013341Y009601D02*
X013861Y009601D01*
X015601Y008861D02*
X015601Y008341D01*
X015601Y007361D02*
X015601Y006841D01*
X010861Y007601D02*
X010341Y007601D01*
X010341Y008601D02*
X010861Y008601D01*
X010861Y009601D02*
X010341Y009601D01*
X008861Y009601D02*
X008341Y009601D01*
X008341Y010601D02*
X008861Y010601D01*
X008861Y011601D02*
X008341Y011601D01*
X008341Y008601D02*
X008861Y008601D01*
X008861Y007601D02*
X008341Y007601D01*
X015601Y004361D02*
X015601Y003841D01*
X022601Y003841D02*
X022601Y004361D01*
X022601Y006841D02*
X022601Y007361D01*
X022601Y008341D02*
X022601Y008861D01*
X022601Y011341D02*
X022601Y011861D01*
X023101Y012841D02*
X023101Y013361D01*
X024101Y013361D02*
X024101Y012841D01*
X025101Y012841D02*
X025101Y013361D01*
X026101Y013361D02*
X026101Y012841D01*
X027101Y012841D02*
X027101Y013361D01*
X028101Y013361D02*
X028101Y012841D01*
X029101Y012841D02*
X029101Y013361D01*
X030101Y013361D02*
X030101Y012841D01*
X031101Y012841D02*
X031101Y013361D01*
X032101Y013361D02*
X032101Y012841D01*
X033101Y012841D02*
X033101Y013361D01*
X034101Y013361D02*
X034101Y012841D01*
X035101Y012841D02*
X035101Y013361D01*
X036101Y013361D02*
X036101Y012841D01*
X036601Y011861D02*
X036601Y011341D01*
X036601Y008861D02*
X036601Y008341D01*
X036601Y007361D02*
X036601Y006841D01*
X036601Y004361D02*
X036601Y003841D01*
X043341Y003601D02*
X043861Y003601D01*
X043861Y004601D02*
X043341Y004601D01*
X043341Y005601D02*
X043861Y005601D01*
X043861Y006601D02*
X043341Y006601D01*
X043341Y007601D02*
X043861Y007601D01*
X043861Y008601D02*
X043341Y008601D01*
X043341Y009601D02*
X043861Y009601D01*
X043861Y010601D02*
X043341Y010601D01*
X043341Y011601D02*
X043861Y011601D01*
X045341Y011601D02*
X045861Y011601D01*
X045861Y010601D02*
X045341Y010601D01*
X045341Y009601D02*
X045861Y009601D01*
X045861Y008601D02*
X045341Y008601D01*
X045341Y007601D02*
X045861Y007601D01*
X045861Y006601D02*
X045341Y006601D01*
X045341Y005601D02*
X045861Y005601D01*
X045861Y004601D02*
X045341Y004601D01*
X045341Y003601D02*
X045861Y003601D01*
X029601Y003841D02*
X029601Y004361D01*
X029601Y006841D02*
X029601Y007361D01*
X029601Y008341D02*
X029601Y008861D01*
X029601Y011341D02*
X029601Y011861D01*
X030101Y015841D02*
X030101Y016361D01*
X029101Y016361D02*
X029101Y015841D01*
X028101Y015841D02*
X028101Y016361D01*
X027101Y016361D02*
X027101Y015841D01*
X026101Y015841D02*
X026101Y016361D01*
X025101Y016361D02*
X025101Y015841D01*
X024101Y015841D02*
X024101Y016361D01*
X023101Y016361D02*
X023101Y015841D01*
X021601Y015841D02*
X021601Y016361D01*
X022601Y017341D02*
X022601Y017861D01*
X022601Y020341D02*
X022601Y020861D01*
X022601Y021841D02*
X022601Y022361D01*
X022601Y024841D02*
X022601Y025361D01*
X029601Y025361D02*
X029601Y024841D01*
X029601Y022361D02*
X029601Y021841D01*
X029601Y020861D02*
X029601Y020341D01*
X029601Y017861D02*
X029601Y017341D01*
X031101Y016361D02*
X031101Y015841D01*
X032101Y015841D02*
X032101Y016361D01*
X033101Y016361D02*
X033101Y015841D01*
X034101Y015841D02*
X034101Y016361D01*
X035101Y016361D02*
X035101Y015841D01*
X036101Y015841D02*
X036101Y016361D01*
X036601Y017341D02*
X036601Y017861D01*
X036601Y020341D02*
X036601Y020861D01*
X036601Y021841D02*
X036601Y022361D01*
X036601Y024841D02*
X036601Y025361D01*
X043341Y024101D02*
X043861Y024101D01*
X043861Y023101D02*
X043341Y023101D01*
X043341Y022101D02*
X043861Y022101D01*
X045341Y022101D02*
X045861Y022101D01*
X045861Y023101D02*
X045341Y023101D01*
X045341Y024101D02*
X045861Y024101D01*
X045861Y021101D02*
X045341Y021101D01*
X045341Y020101D02*
X045861Y020101D01*
X045861Y019101D02*
X045341Y019101D01*
X045341Y018101D02*
X045861Y018101D01*
X045861Y017101D02*
X045341Y017101D01*
X045341Y016101D02*
X045861Y016101D01*
X043861Y016101D02*
X043341Y016101D01*
X043341Y017101D02*
X043861Y017101D01*
X043861Y018101D02*
X043341Y018101D01*
X043341Y019101D02*
X043861Y019101D01*
X043861Y020101D02*
X043341Y020101D01*
X043341Y021101D02*
X043861Y021101D01*
X021601Y013361D02*
X021601Y012841D01*
X015601Y011861D02*
X015601Y011341D01*
X015601Y017341D02*
X015601Y017861D01*
X012861Y018101D02*
X012341Y018101D01*
X012341Y019101D02*
X012861Y019101D01*
X012861Y020101D02*
X012341Y020101D01*
X012341Y021101D02*
X012861Y021101D01*
X012861Y022101D02*
X012341Y022101D01*
X012341Y023101D02*
X012861Y023101D01*
X012861Y024101D02*
X012341Y024101D01*
X010861Y024101D02*
X010341Y024101D01*
X010341Y023101D02*
X010861Y023101D01*
X010861Y022101D02*
X010341Y022101D01*
X010341Y021101D02*
X010861Y021101D01*
X010861Y020101D02*
X010341Y020101D01*
X010341Y019101D02*
X010861Y019101D01*
X010861Y018101D02*
X010341Y018101D01*
X015601Y020341D02*
X015601Y020861D01*
X015601Y021841D02*
X015601Y022361D01*
X015601Y024841D02*
X015601Y025361D01*
X012861Y025101D02*
X012341Y025101D01*
X012341Y026101D02*
X012861Y026101D01*
X010861Y026101D02*
X010341Y026101D01*
X010341Y025101D02*
X010861Y025101D01*
X008101Y025341D02*
X008101Y025861D01*
X007101Y025861D02*
X007101Y025341D01*
X006101Y025341D02*
X006101Y025861D01*
X005101Y025861D02*
X005101Y025341D01*
X005101Y022861D02*
X005101Y022341D01*
X006101Y022341D02*
X006101Y022861D01*
X007101Y022861D02*
X007101Y022341D01*
X008101Y022341D02*
X008101Y022861D01*
D12*
X008101Y020901D03*
X008101Y016901D03*
X017101Y018101D03*
X018101Y021101D03*
X017101Y022101D03*
X018101Y025101D03*
X024101Y022101D03*
X025101Y021101D03*
X024101Y018101D03*
X031101Y018101D03*
X032101Y021101D03*
X031101Y022101D03*
X032101Y025101D03*
X038101Y022101D03*
X039101Y021101D03*
X038101Y018101D03*
X039101Y011601D03*
X038101Y008101D03*
X039101Y007601D03*
X038101Y004101D03*
X032101Y007601D03*
X031101Y008101D03*
X025101Y007601D03*
X024101Y008101D03*
X018101Y007601D03*
X017101Y008101D03*
X018101Y011601D03*
X025101Y011601D03*
X032101Y011601D03*
X031101Y004101D03*
X024101Y004101D03*
X017101Y004101D03*
X007101Y005601D03*
X003101Y005601D03*
X025101Y025101D03*
X039101Y025101D03*
D13*
X017601Y015101D03*
X014601Y014601D03*
X010601Y015801D03*
D14*
X010601Y014401D03*
X014601Y015601D03*
X017601Y014101D03*
D15*
X020101Y013101D03*
X020101Y010351D03*
X020601Y009601D03*
X019601Y009601D03*
X020101Y006851D03*
X020601Y006101D03*
X019601Y006101D03*
X026601Y006601D03*
X027601Y006601D03*
X027101Y007351D03*
X027601Y009601D03*
X027101Y010351D03*
X026601Y009601D03*
X033601Y009601D03*
X034601Y009601D03*
X034101Y010351D03*
X040601Y009601D03*
X041101Y010351D03*
X041601Y009601D03*
X041101Y006851D03*
X041601Y006101D03*
X040601Y006101D03*
X034601Y006101D03*
X033601Y006101D03*
X034101Y006851D03*
X047601Y008101D03*
X048601Y008101D03*
X050101Y008101D03*
X051101Y008101D03*
X051101Y005601D03*
X050101Y005601D03*
X048601Y005601D03*
X047601Y005601D03*
X047601Y010601D03*
X048601Y010601D03*
X050101Y010601D03*
X051101Y010601D03*
X051101Y013101D03*
X050101Y013101D03*
X048601Y013101D03*
X047601Y013101D03*
X047601Y015601D03*
X048601Y015601D03*
X050101Y015601D03*
X051101Y015601D03*
X052101Y017101D03*
X053101Y017101D03*
X051101Y018101D03*
X050101Y018101D03*
X048601Y018101D03*
X047601Y018101D03*
X047601Y020601D03*
X048601Y020601D03*
X050101Y020601D03*
X051101Y020601D03*
X051101Y023101D03*
X050101Y023101D03*
X048601Y023101D03*
X047601Y023101D03*
X041601Y023601D03*
X041101Y024351D03*
X040601Y023601D03*
X034601Y023601D03*
X033601Y023601D03*
X034101Y024351D03*
X027601Y023601D03*
X027101Y024351D03*
X026601Y023601D03*
X020601Y023601D03*
X019601Y023601D03*
X020101Y024351D03*
X020101Y020351D03*
X020601Y019601D03*
X019601Y019601D03*
X020101Y016101D03*
X026601Y019601D03*
X027101Y020351D03*
X027601Y019601D03*
X033601Y019601D03*
X034601Y019601D03*
X034101Y020351D03*
X040601Y019601D03*
X041101Y020351D03*
X041601Y019601D03*
X052101Y014101D03*
X053101Y014101D03*
X013601Y012101D03*
X010601Y012101D03*
X007601Y013601D03*
X006601Y013601D03*
X007101Y014351D03*
X003501Y012601D03*
X005501Y010351D03*
X006001Y009601D03*
X005001Y009601D03*
X003501Y009601D03*
X003501Y007801D03*
X006501Y007801D03*
D16*
X006701Y002801D02*
X006701Y002201D01*
X007701Y002201D02*
X007701Y002801D01*
X008701Y002801D02*
X008701Y002201D01*
X009701Y002201D02*
X009701Y002801D01*
X005701Y002801D02*
X005701Y002201D01*
X004201Y018801D02*
X003601Y018801D01*
X003601Y019801D02*
X004201Y019801D01*
X004201Y020801D02*
X003601Y020801D01*
X003601Y021801D02*
X004201Y021801D01*
D17*
X014601Y026601D03*
X017101Y026601D03*
X021601Y026601D03*
X024101Y026601D03*
X028601Y026601D03*
X031101Y026601D03*
X035601Y026601D03*
X038101Y026601D03*
X012601Y002701D03*
X014601Y002601D03*
X016601Y002601D03*
X021601Y002601D03*
X023601Y002601D03*
X028101Y002601D03*
X030601Y002601D03*
X035101Y002601D03*
X037601Y002601D03*
D18*
X052101Y002601D03*
X052101Y026601D03*
X002601Y026601D03*
X002601Y002601D03*
D19*
X003621Y014101D02*
X004181Y014101D01*
X004181Y015101D02*
X003621Y015101D01*
X003621Y016101D02*
X004181Y016101D01*
X004181Y017101D02*
X003621Y017101D01*
D20*
X006501Y017501D03*
X006501Y018501D03*
X006501Y019501D03*
D21*
X004701Y018001D02*
X003901Y018801D01*
X004701Y018001D02*
X004701Y014901D01*
X003901Y014101D01*
X007601Y013601D02*
X007601Y012501D01*
X005501Y010401D01*
X005501Y010351D01*
X005501Y007301D01*
X007101Y005701D01*
X007101Y005601D01*
X008601Y005601D01*
X008601Y006601D01*
X009801Y008401D02*
X010601Y007601D01*
X009801Y008401D02*
X009801Y013501D01*
X010601Y014301D01*
X010601Y014401D01*
X008101Y016901D01*
X013601Y013601D02*
X013601Y012101D01*
X014801Y010901D01*
X014801Y007601D01*
X013601Y007601D01*
X013601Y006601D02*
X012801Y005801D01*
X012801Y002901D01*
X012601Y002701D01*
X020601Y006101D02*
X020801Y006301D01*
X020801Y009401D01*
X020601Y009601D01*
X027601Y009601D02*
X027601Y006601D01*
X034601Y006101D02*
X034601Y009601D01*
X030301Y013301D02*
X030101Y013101D01*
X030301Y013301D02*
X030301Y014301D01*
X030301Y014401D01*
X030001Y014701D01*
X030001Y014801D01*
X030301Y014301D02*
X032101Y016101D01*
X034601Y019601D02*
X034601Y023601D01*
X027801Y023401D02*
X027601Y023601D01*
X027801Y023401D02*
X027801Y019801D01*
X027601Y019601D01*
X020601Y019601D02*
X020601Y023601D01*
X014601Y014601D02*
X013601Y013601D01*
X041601Y009601D02*
X041601Y006101D01*
X041601Y009601D02*
X041601Y019601D01*
X041601Y023601D01*
X043601Y024101D02*
X044601Y023101D01*
X044601Y012601D01*
X043601Y011601D01*
D22*
X042501Y010101D03*
X042201Y009601D03*
X040501Y010301D03*
X042601Y008501D03*
X041101Y007701D03*
X046301Y010001D03*
X047301Y008701D03*
X046701Y007701D03*
X052001Y008401D03*
X052401Y011201D03*
X053201Y011101D03*
X053401Y011601D03*
X051401Y012401D03*
X050001Y011201D03*
X045301Y013401D03*
X048101Y013801D03*
X048801Y014601D03*
X049201Y015601D03*
X050601Y016501D03*
X048701Y017201D03*
X047701Y016801D03*
X046501Y019401D03*
X046901Y020001D03*
X049601Y020901D03*
X047001Y021501D03*
X043001Y019601D03*
X036001Y019901D03*
X032101Y018401D03*
X031401Y019601D03*
X031801Y020001D03*
X028201Y018801D03*
X025901Y018301D03*
X024801Y018101D03*
X025501Y019601D03*
X027301Y021201D03*
X031501Y023401D03*
X032501Y023201D03*
X030301Y024901D03*
X029201Y024401D03*
X034001Y027201D03*
X021501Y022001D03*
X019201Y021601D03*
X019101Y022601D03*
X018401Y022401D03*
X018201Y024101D03*
X014701Y019601D03*
X014101Y019001D03*
X013701Y018201D03*
X015301Y016201D03*
X018901Y014601D03*
X021001Y012801D03*
X021901Y011401D03*
X024801Y010001D03*
X026401Y010401D03*
X030501Y011601D03*
X031101Y010801D03*
X031601Y010401D03*
X031501Y009101D03*
X032601Y009101D03*
X036001Y011201D03*
X037201Y010801D03*
X036701Y012801D03*
X034501Y013801D03*
X035201Y014701D03*
X038901Y015001D03*
X042501Y014601D03*
X052801Y020001D03*
X053201Y019101D03*
X052001Y023801D03*
X052401Y024201D03*
X050101Y024701D03*
X049301Y024501D03*
X048001Y025501D03*
X030701Y017301D03*
X027501Y017201D03*
X029201Y014601D03*
X030001Y014801D03*
X028701Y013801D03*
X020301Y008201D03*
X023701Y005601D03*
X022001Y005401D03*
X026401Y003401D03*
X014301Y008201D03*
X011801Y008501D03*
X010901Y010501D03*
X007601Y017301D03*
X009701Y017701D03*
X017501Y019001D03*
X018201Y018601D03*
X046501Y003601D03*
X048901Y004101D03*
X045601Y002001D03*
X005201Y001501D03*
D23*
X021401Y001501D01*
X022201Y002301D01*
X022201Y002901D01*
X022101Y003001D01*
X022101Y004501D01*
X023101Y005501D01*
X023101Y008801D01*
X026601Y012301D01*
X026601Y013801D01*
X026601Y018101D01*
X026101Y018601D01*
X026101Y020001D01*
X027301Y021201D01*
X027101Y022601D02*
X025901Y021401D01*
X025901Y018301D01*
X025901Y016301D01*
X026101Y016101D01*
X027101Y016101D02*
X027101Y015401D01*
X028701Y013801D01*
X029201Y013801D02*
X029601Y013801D01*
X029601Y011701D01*
X029601Y011601D01*
X029601Y011701D02*
X030601Y012701D01*
X030601Y013801D01*
X033401Y013801D01*
X034101Y013101D01*
X034101Y010351D01*
X034601Y010201D02*
X034101Y009701D01*
X034101Y006851D01*
X033601Y006101D02*
X031301Y003801D01*
X031101Y003801D01*
X031101Y004101D01*
X030601Y003101D02*
X029601Y004101D01*
X031101Y005601D01*
X031101Y008101D01*
X031101Y010801D01*
X031501Y010501D02*
X031501Y012701D01*
X031101Y013101D01*
X032101Y013101D02*
X032601Y012601D01*
X032601Y009101D01*
X032101Y009701D02*
X032101Y011601D01*
X031501Y010501D02*
X031601Y010401D01*
X032101Y009701D02*
X031501Y009101D01*
X029601Y008601D02*
X028101Y007101D01*
X028101Y002601D01*
X029101Y002001D02*
X029101Y005701D01*
X030101Y006701D01*
X030101Y011201D01*
X030501Y011601D01*
X030101Y011201D02*
X029001Y010101D01*
X027501Y010101D01*
X027101Y009701D01*
X027101Y007351D01*
X026601Y006601D02*
X024101Y004101D01*
X023301Y003401D02*
X023301Y007301D01*
X024101Y008101D01*
X025101Y008101D02*
X025101Y007601D01*
X025101Y008101D02*
X026601Y009601D01*
X026401Y010401D02*
X029101Y013101D01*
X029201Y013801D02*
X027601Y015401D01*
X027601Y017101D01*
X027501Y017201D01*
X027101Y016101D02*
X027101Y020351D01*
X025501Y019601D02*
X024101Y018201D01*
X024101Y018101D01*
X024801Y018101D02*
X024801Y016401D01*
X025101Y016101D01*
X024101Y016101D02*
X023301Y016901D01*
X021101Y016901D01*
X021101Y023701D01*
X020501Y024301D01*
X020101Y024301D01*
X020101Y024351D01*
X019601Y024201D02*
X019601Y025501D01*
X021501Y027401D01*
X029601Y027401D01*
X029601Y025101D01*
X030101Y024601D01*
X030101Y017201D01*
X029601Y016701D01*
X029601Y014201D01*
X029101Y014201D01*
X028401Y014901D01*
X028401Y015801D01*
X028101Y016101D01*
X029101Y016101D02*
X029101Y020101D01*
X029601Y020601D01*
X031101Y019301D02*
X031401Y019601D01*
X031101Y019301D02*
X031101Y018101D01*
X031801Y018701D02*
X031801Y020001D01*
X031601Y020701D02*
X032601Y019701D01*
X032601Y015701D01*
X032901Y015401D01*
X035601Y015401D01*
X035601Y008101D01*
X036601Y007101D01*
X037101Y006701D02*
X037101Y009101D01*
X036601Y008601D01*
X037101Y009101D02*
X039101Y011101D01*
X039101Y011601D01*
X039401Y012101D02*
X036101Y012101D01*
X036101Y013101D01*
X036701Y012801D02*
X038901Y015001D01*
X036101Y015401D02*
X036101Y016101D01*
X036101Y017101D02*
X035101Y016101D01*
X034101Y016101D02*
X034101Y019701D01*
X033601Y020201D01*
X033601Y020501D01*
X034101Y021001D01*
X034101Y023701D01*
X033601Y024201D01*
X033601Y027801D01*
X007301Y027801D01*
X005101Y025601D01*
X006101Y025601D02*
X007101Y025601D01*
X007601Y025101D01*
X007601Y018101D01*
X011101Y014601D01*
X011101Y010701D01*
X010901Y010501D01*
X013101Y011001D02*
X014301Y009801D01*
X014301Y008201D01*
X015101Y007601D02*
X015601Y007101D01*
X015101Y007601D02*
X015101Y015801D01*
X014901Y016001D01*
X014901Y018201D01*
X014101Y019001D01*
X014301Y019301D02*
X015101Y018501D01*
X015101Y016901D01*
X017401Y014601D01*
X018901Y014601D01*
X020101Y013101D02*
X021101Y012101D01*
X021101Y006001D01*
X021001Y005901D01*
X021001Y002001D01*
X012401Y002001D01*
X012001Y002401D01*
X012001Y003301D01*
X008501Y003301D01*
X007701Y002501D01*
X007301Y004101D02*
X005701Y002501D01*
X005201Y002001D02*
X005501Y001701D01*
X009701Y001701D01*
X009701Y002501D01*
X011301Y004101D02*
X007301Y004101D01*
X009301Y006901D02*
X010601Y005601D01*
X009301Y006901D02*
X009301Y012801D01*
X007301Y014801D01*
X006601Y014801D01*
X006601Y013601D01*
X005001Y014101D02*
X003501Y012601D01*
X004501Y013301D02*
X007601Y016401D01*
X007601Y017301D01*
X009701Y017701D02*
X009701Y021001D01*
X008101Y022601D01*
X007101Y022601D02*
X004301Y019801D01*
X003901Y019801D01*
X003901Y020801D02*
X004301Y020801D01*
X006101Y022601D01*
X003101Y024501D02*
X006801Y028201D01*
X045601Y028201D01*
X045601Y024101D01*
X044901Y023401D01*
X044901Y004301D01*
X045601Y003601D01*
X046501Y003601D02*
X048101Y005201D01*
X048101Y008201D01*
X048301Y008401D01*
X048301Y010301D01*
X048601Y010601D01*
X049501Y011201D02*
X049501Y013401D01*
X049201Y013701D01*
X049201Y015601D01*
X048301Y015901D02*
X048101Y015701D01*
X048101Y013801D01*
X047601Y013801D02*
X047601Y015601D01*
X047101Y015701D02*
X048101Y016701D01*
X048101Y020101D01*
X047601Y020601D01*
X047301Y020101D02*
X046301Y021101D01*
X045601Y021101D01*
X047001Y021501D02*
X048601Y023101D01*
X047601Y023101D02*
X047601Y025901D01*
X048101Y025901D01*
X048401Y025601D01*
X048401Y025301D01*
X051801Y025301D01*
X054001Y023101D01*
X054001Y012201D01*
X053401Y011601D01*
X053001Y011301D02*
X053001Y013101D01*
X053801Y013901D01*
X053801Y018501D01*
X053201Y019101D01*
X052801Y019001D02*
X052801Y020001D01*
X052601Y019701D02*
X052401Y019901D01*
X052401Y024201D01*
X052001Y023801D02*
X052001Y017201D01*
X052101Y017101D01*
X051601Y017701D02*
X051801Y017901D01*
X051801Y023501D01*
X050201Y025101D01*
X048001Y025101D01*
X048001Y025501D01*
X049301Y024501D02*
X050601Y023201D01*
X050601Y021101D01*
X051101Y020601D01*
X049601Y020901D02*
X049601Y013601D01*
X050101Y013101D01*
X049301Y013301D02*
X048801Y013801D01*
X048801Y014601D01*
X047601Y013801D02*
X048101Y013301D01*
X048101Y009501D01*
X047301Y008701D01*
X047601Y008101D02*
X047601Y007601D01*
X045601Y005601D01*
X045601Y006601D02*
X046301Y007301D01*
X046301Y010001D01*
X045601Y010601D02*
X046701Y011701D01*
X046701Y014501D01*
X047101Y014901D01*
X047101Y015701D01*
X048301Y015901D02*
X048301Y017801D01*
X048601Y018101D01*
X049201Y017701D02*
X049201Y022201D01*
X050101Y023101D01*
X051601Y023201D02*
X050101Y024701D01*
X051601Y023201D02*
X051601Y018001D01*
X051401Y017801D01*
X051401Y015901D01*
X051101Y015601D01*
X050601Y016501D02*
X050601Y011801D01*
X050001Y011201D01*
X049501Y011201D02*
X050101Y010601D01*
X050601Y010501D02*
X050601Y011501D01*
X051401Y012301D01*
X051401Y012401D01*
X051601Y012101D02*
X051801Y012301D01*
X051801Y013801D01*
X051601Y014001D01*
X051601Y017701D01*
X052801Y019001D02*
X053601Y018201D01*
X053601Y014001D01*
X052801Y013201D01*
X052801Y005101D01*
X050601Y005101D01*
X050101Y005601D01*
X049701Y005401D02*
X049601Y005501D01*
X049601Y009501D01*
X050601Y010501D01*
X052401Y011201D02*
X052601Y011401D01*
X052601Y019701D01*
X049201Y017701D02*
X048701Y017201D01*
X047701Y016801D02*
X047101Y017401D01*
X047101Y019701D01*
X047301Y019901D01*
X047301Y020101D01*
X046901Y020001D02*
X046901Y015001D01*
X045301Y013401D01*
X044301Y013201D02*
X042901Y011801D01*
X042901Y008801D01*
X042601Y008501D01*
X043601Y007601D02*
X044301Y006901D01*
X044301Y003401D01*
X042901Y002001D01*
X029101Y002001D01*
X028401Y001401D02*
X049701Y001401D01*
X049701Y005401D01*
X049101Y005501D02*
X045601Y002001D01*
X043601Y003601D02*
X041101Y003601D01*
X041101Y006851D01*
X041101Y007701D02*
X041101Y009701D01*
X040501Y010301D01*
X041101Y010351D02*
X041101Y010401D01*
X039401Y012101D01*
X037201Y010801D02*
X036001Y010801D01*
X036001Y011201D01*
X036601Y011601D02*
X036101Y012101D01*
X035101Y013101D02*
X034601Y012601D01*
X034601Y010201D01*
X033601Y009601D02*
X032101Y008101D01*
X032101Y007601D01*
X036101Y005701D02*
X037101Y006701D01*
X036101Y005701D02*
X036101Y003601D01*
X035101Y002601D01*
X036601Y004101D02*
X037601Y003101D01*
X037601Y002601D01*
X038101Y003801D02*
X038101Y004101D01*
X038101Y003801D02*
X038301Y003801D01*
X040601Y006101D01*
X042201Y006001D02*
X042201Y009601D01*
X042501Y010101D02*
X042101Y010501D01*
X042101Y023701D01*
X041701Y024101D01*
X041501Y024101D01*
X041301Y023901D01*
X040901Y023901D01*
X039701Y025101D01*
X039101Y025101D01*
X039101Y027201D01*
X037801Y027201D01*
X037501Y026901D01*
X037501Y026601D01*
X035601Y026601D01*
X035601Y023101D01*
X036601Y022101D01*
X035401Y021801D02*
X036601Y020601D01*
X036601Y020001D01*
X036101Y019501D01*
X036101Y017101D01*
X036601Y017601D02*
X038101Y019101D01*
X038101Y022101D01*
X038101Y026601D01*
X035401Y025801D02*
X035401Y021801D01*
X035101Y020801D02*
X035101Y023701D01*
X034501Y024301D01*
X034101Y024301D01*
X034101Y024351D01*
X033601Y023601D02*
X032101Y023601D01*
X032101Y021101D01*
X031601Y020701D02*
X031601Y023301D01*
X031501Y023401D01*
X032501Y023201D02*
X033101Y022601D01*
X033101Y016101D01*
X035601Y015401D02*
X036101Y015401D01*
X035201Y014701D02*
X034501Y014001D01*
X034501Y013801D01*
X030301Y016301D02*
X030101Y016101D01*
X030301Y016301D02*
X030301Y024901D01*
X029201Y024401D02*
X028601Y024401D01*
X028601Y023101D01*
X028601Y015201D01*
X029201Y014601D01*
X028101Y013101D02*
X028101Y012801D01*
X024601Y009301D01*
X024601Y006501D01*
X023701Y005601D01*
X022401Y005501D02*
X022401Y005101D01*
X021601Y004301D01*
X021601Y002601D01*
X022601Y004101D02*
X023301Y003401D01*
X023601Y003101D01*
X023601Y002601D01*
X026401Y003401D02*
X028401Y001401D01*
X030601Y002601D02*
X030601Y003101D01*
X036601Y004101D02*
X038101Y005601D01*
X038101Y008101D01*
X039101Y008101D02*
X039101Y007601D01*
X039101Y008101D02*
X040601Y009601D01*
X046701Y007701D02*
X046901Y007901D01*
X046901Y012401D01*
X047601Y013101D01*
X048601Y013101D02*
X049101Y012601D01*
X049101Y005501D01*
X049301Y004501D02*
X049301Y013301D01*
X051601Y012101D02*
X051601Y006101D01*
X051101Y005601D01*
X049301Y004501D02*
X048901Y004101D01*
X043601Y004601D02*
X042201Y006001D01*
X052001Y008401D02*
X052001Y014001D01*
X052101Y014101D01*
X053001Y011301D02*
X053201Y011101D01*
X044301Y013201D02*
X044301Y019601D01*
X043001Y019601D01*
X043601Y019101D02*
X042501Y018001D01*
X042501Y014601D01*
X045601Y017101D02*
X046501Y018001D01*
X046501Y019401D01*
X043601Y022101D02*
X042901Y022801D01*
X042901Y024301D01*
X041101Y024301D01*
X041101Y024351D01*
X040601Y023601D02*
X039101Y022101D01*
X039101Y021101D01*
X038301Y019601D02*
X038301Y018301D01*
X038101Y018101D01*
X038301Y019601D02*
X040601Y019601D01*
X036001Y019901D02*
X035101Y020801D01*
X032101Y018401D02*
X031801Y018701D01*
X030601Y017401D02*
X030601Y021601D01*
X031101Y022101D01*
X031101Y026601D01*
X028601Y026601D02*
X028601Y024401D01*
X028101Y024001D02*
X027001Y025101D01*
X025101Y025101D01*
X025101Y027201D01*
X023801Y027201D01*
X022601Y026001D01*
X023101Y025501D01*
X023101Y022601D01*
X022601Y022101D01*
X022601Y023101D02*
X021501Y022001D01*
X020101Y021701D02*
X020101Y023701D01*
X019601Y024201D01*
X019601Y023601D02*
X019601Y021501D01*
X019201Y021101D01*
X018101Y021101D01*
X017601Y020901D02*
X017901Y020601D01*
X019701Y020601D01*
X019701Y021301D01*
X020101Y021701D01*
X019201Y021601D02*
X018401Y022401D01*
X018601Y023101D02*
X017601Y022101D01*
X017601Y020901D01*
X016901Y021901D02*
X017101Y022101D01*
X017101Y023001D01*
X017601Y023501D01*
X017601Y026101D01*
X017101Y026601D01*
X017401Y027201D02*
X017801Y026801D01*
X017801Y025401D01*
X018101Y025101D01*
X018201Y024101D02*
X017601Y023501D01*
X018601Y023101D02*
X018601Y027401D01*
X013001Y027401D01*
X011701Y026101D01*
X011701Y024201D01*
X010601Y023101D01*
X010201Y022601D02*
X011801Y022601D01*
X011801Y024001D01*
X011901Y024101D01*
X011901Y025401D01*
X012601Y026101D01*
X011501Y026201D02*
X012901Y027601D01*
X019101Y027601D01*
X019101Y022601D01*
X016901Y021901D02*
X016901Y018901D01*
X015601Y017601D01*
X017101Y018101D02*
X017101Y019601D01*
X019601Y019601D01*
X018201Y018601D02*
X023001Y013801D01*
X024101Y013801D01*
X024101Y013101D01*
X025401Y013801D02*
X026601Y013801D01*
X027101Y013101D02*
X026801Y012801D01*
X026801Y012001D01*
X024801Y010001D01*
X025101Y011101D02*
X025101Y011601D01*
X025101Y011101D02*
X022601Y008601D01*
X022101Y008101D01*
X022101Y005801D01*
X022401Y005501D01*
X022001Y005401D02*
X021501Y005901D01*
X021501Y013001D01*
X021601Y013101D01*
X021001Y013001D02*
X021001Y012801D01*
X021001Y013001D02*
X017801Y016201D01*
X017801Y018701D01*
X017501Y019001D01*
X015101Y020001D02*
X015101Y024601D01*
X015601Y025101D01*
X016101Y025501D02*
X015001Y026601D01*
X014601Y026601D01*
X015001Y026601D02*
X015001Y027201D01*
X017401Y027201D01*
X016101Y025501D02*
X016101Y022601D01*
X015601Y022101D01*
X014301Y022401D02*
X014301Y019301D01*
X014701Y019601D02*
X015101Y020001D01*
X013701Y021001D02*
X013701Y018201D01*
X011301Y018401D02*
X010601Y019101D01*
X009901Y018801D02*
X009901Y022301D01*
X010201Y022601D01*
X011801Y022301D02*
X011801Y008501D01*
X015601Y008601D02*
X016101Y008101D01*
X016101Y005501D01*
X014601Y004001D01*
X014601Y002601D01*
X015601Y004101D02*
X016601Y003101D01*
X016601Y002601D01*
X017101Y003801D02*
X017101Y004101D01*
X017101Y003801D02*
X017301Y003801D01*
X019601Y006101D01*
X020101Y006851D02*
X020101Y008001D01*
X020301Y008201D01*
X019601Y009601D02*
X018101Y008101D01*
X018101Y007601D01*
X017101Y008101D02*
X017101Y005601D01*
X015601Y004101D01*
X011301Y004101D02*
X011301Y018401D01*
X010601Y018101D02*
X009901Y018801D01*
X006501Y019501D02*
X005001Y018001D01*
X005001Y014101D01*
X004501Y013301D02*
X004501Y008801D01*
X003501Y007801D01*
X003101Y007401D01*
X003101Y005601D01*
X005201Y002001D02*
X005201Y009401D01*
X005001Y009601D01*
X013101Y011001D02*
X013101Y012201D01*
X013301Y012401D01*
X013301Y020401D01*
X012601Y021101D01*
X012601Y022101D02*
X013701Y021001D01*
X011801Y022301D02*
X012601Y023101D01*
X012601Y024101D02*
X014301Y022401D01*
X011501Y025001D02*
X010601Y024101D01*
X011501Y025001D02*
X011501Y026201D01*
X003101Y024501D02*
X003101Y017901D01*
X003901Y017101D01*
X015301Y016201D02*
X015601Y015901D01*
X015601Y011601D01*
X017601Y011601D01*
X017601Y011801D01*
X017901Y012101D01*
X020101Y012101D01*
X020101Y010351D01*
X021901Y011401D02*
X021901Y012301D01*
X025301Y012301D01*
X026101Y013101D01*
X025401Y013801D02*
X023101Y016101D01*
X022601Y017601D02*
X024101Y019101D01*
X024101Y022101D01*
X024101Y026601D01*
X022601Y026001D02*
X022001Y026601D01*
X021601Y026601D01*
X022601Y025101D02*
X022601Y023101D01*
X025101Y022101D02*
X025101Y021101D01*
X025101Y022101D02*
X026601Y023601D01*
X027101Y024351D02*
X027101Y022601D01*
X028601Y023101D02*
X029601Y022101D01*
X028101Y024001D02*
X028101Y018901D01*
X028201Y018801D01*
X030601Y017401D02*
X030701Y017301D01*
X018101Y011601D02*
X018101Y011101D01*
X015601Y008601D01*
X034001Y027201D02*
X035401Y025801D01*
M02*
