G75*
G70*
%OFA0B0*%
%FSLAX24Y24*%
%IPPOS*%
%LPD*%
%AMOC8*
5,1,8,0,0,1.08239X$1,22.5*
%
%ADD10C,0.0000*%
%ADD11C,0.0070*%
%ADD12C,0.0060*%
%ADD13C,0.0040*%
%ADD14C,0.0080*%
%ADD15C,0.0050*%
%ADD16C,0.0160*%
%ADD17C,0.0120*%
%ADD18R,0.0160X0.0230*%
%ADD19R,0.0736X0.0200*%
%ADD20R,0.0335X0.0250*%
D10*
X001996Y000101D02*
X001996Y029471D01*
X021988Y029471D01*
X021988Y000101D01*
X001996Y000101D01*
D11*
X016580Y005417D02*
X016580Y005627D01*
X016580Y005522D02*
X017211Y005522D01*
X017211Y005417D02*
X017211Y005627D01*
X017106Y005847D02*
X017211Y005952D01*
X017211Y006162D01*
X017106Y006267D01*
X017211Y006491D02*
X017211Y006912D01*
X017211Y006701D02*
X016580Y006701D01*
X016790Y006491D01*
X016685Y006267D02*
X016580Y006162D01*
X016580Y005952D01*
X016685Y005847D01*
X017106Y005847D01*
D12*
X016496Y005601D02*
X016496Y005101D01*
X002496Y005101D01*
X002496Y007101D01*
X016446Y007101D01*
X016496Y007101D02*
X016496Y006601D01*
X016452Y006599D01*
X016409Y006593D01*
X016367Y006584D01*
X016325Y006571D01*
X016285Y006554D01*
X016246Y006534D01*
X016209Y006511D01*
X016175Y006484D01*
X016142Y006455D01*
X016113Y006422D01*
X016086Y006388D01*
X016063Y006351D01*
X016043Y006312D01*
X016026Y006272D01*
X016013Y006230D01*
X016004Y006188D01*
X015998Y006145D01*
X015996Y006101D01*
X015998Y006057D01*
X016004Y006014D01*
X016013Y005972D01*
X016026Y005930D01*
X016043Y005890D01*
X016063Y005851D01*
X016086Y005814D01*
X016113Y005780D01*
X016142Y005747D01*
X016175Y005718D01*
X016209Y005691D01*
X016246Y005668D01*
X016285Y005648D01*
X016325Y005631D01*
X016367Y005618D01*
X016409Y005609D01*
X016452Y005603D01*
X016496Y005601D01*
X018646Y005351D02*
X018646Y005851D01*
X018648Y005877D01*
X018653Y005903D01*
X018661Y005928D01*
X018673Y005951D01*
X018687Y005973D01*
X018705Y005992D01*
X018724Y006010D01*
X018746Y006024D01*
X018769Y006036D01*
X018794Y006044D01*
X018820Y006049D01*
X018846Y006051D01*
X020146Y006051D01*
X020172Y006049D01*
X020198Y006044D01*
X020223Y006036D01*
X020246Y006024D01*
X020268Y006010D01*
X020287Y005992D01*
X020305Y005973D01*
X020319Y005951D01*
X020331Y005928D01*
X020339Y005903D01*
X020344Y005877D01*
X020346Y005851D01*
X020346Y005351D01*
X020344Y005325D01*
X020339Y005299D01*
X020331Y005274D01*
X020319Y005251D01*
X020305Y005229D01*
X020287Y005210D01*
X020268Y005192D01*
X020246Y005178D01*
X020223Y005166D01*
X020198Y005158D01*
X020172Y005153D01*
X020146Y005151D01*
X018846Y005151D01*
X018820Y005153D01*
X018794Y005158D01*
X018769Y005166D01*
X018746Y005178D01*
X018724Y005192D01*
X018705Y005210D01*
X018687Y005229D01*
X018673Y005251D01*
X018661Y005274D01*
X018653Y005299D01*
X018648Y005325D01*
X018646Y005351D01*
X019546Y007601D02*
X021446Y007601D01*
X021476Y007603D01*
X021506Y007608D01*
X021535Y007617D01*
X021562Y007630D01*
X021588Y007645D01*
X021612Y007664D01*
X021633Y007685D01*
X021652Y007709D01*
X021667Y007735D01*
X021680Y007762D01*
X021689Y007791D01*
X021694Y007821D01*
X021696Y007851D01*
X021696Y012351D01*
X021694Y012381D01*
X021689Y012411D01*
X021680Y012440D01*
X021667Y012467D01*
X021652Y012493D01*
X021633Y012517D01*
X021612Y012538D01*
X021588Y012557D01*
X021562Y012572D01*
X021535Y012585D01*
X021506Y012594D01*
X021476Y012599D01*
X021446Y012601D01*
X019546Y012601D01*
X019516Y012599D01*
X019486Y012594D01*
X019457Y012585D01*
X019430Y012572D01*
X019404Y012557D01*
X019380Y012538D01*
X019359Y012517D01*
X019340Y012493D01*
X019325Y012467D01*
X019312Y012440D01*
X019303Y012411D01*
X019298Y012381D01*
X019296Y012351D01*
X019296Y007851D01*
X019298Y007821D01*
X019303Y007791D01*
X019312Y007762D01*
X019325Y007735D01*
X019340Y007709D01*
X019359Y007685D01*
X019380Y007664D01*
X019404Y007645D01*
X019430Y007630D01*
X019457Y007617D01*
X019486Y007608D01*
X019516Y007603D01*
X019546Y007601D01*
X018346Y011501D02*
X018346Y011601D01*
X018296Y011651D01*
X018296Y012551D01*
X018346Y012601D01*
X018346Y012701D01*
X018344Y012718D01*
X018340Y012735D01*
X018333Y012751D01*
X018323Y012765D01*
X018310Y012778D01*
X018296Y012788D01*
X018280Y012795D01*
X018263Y012799D01*
X018246Y012801D01*
X017746Y012801D02*
X017729Y012799D01*
X017712Y012795D01*
X017696Y012788D01*
X017682Y012778D01*
X017669Y012765D01*
X017659Y012751D01*
X017652Y012735D01*
X017648Y012718D01*
X017646Y012701D01*
X017646Y012601D01*
X017696Y012551D01*
X017696Y011651D01*
X017646Y011601D01*
X017646Y011501D01*
X017648Y011484D01*
X017652Y011467D01*
X017659Y011451D01*
X017669Y011437D01*
X017682Y011424D01*
X017696Y011414D01*
X017712Y011407D01*
X017729Y011403D01*
X017746Y011401D01*
X018246Y011401D02*
X018263Y011403D01*
X018280Y011407D01*
X018296Y011414D01*
X018310Y011424D01*
X018323Y011437D01*
X018333Y011451D01*
X018340Y011467D01*
X018344Y011484D01*
X018346Y011501D01*
X016846Y011501D02*
X016846Y011601D01*
X016796Y011651D01*
X016796Y012551D01*
X016846Y012601D01*
X016846Y012701D01*
X016844Y012718D01*
X016840Y012735D01*
X016833Y012751D01*
X016823Y012765D01*
X016810Y012778D01*
X016796Y012788D01*
X016780Y012795D01*
X016763Y012799D01*
X016746Y012801D01*
X016246Y012801D02*
X016229Y012799D01*
X016212Y012795D01*
X016196Y012788D01*
X016182Y012778D01*
X016169Y012765D01*
X016159Y012751D01*
X016152Y012735D01*
X016148Y012718D01*
X016146Y012701D01*
X016146Y012601D01*
X016196Y012551D01*
X016196Y011651D01*
X016146Y011601D01*
X016146Y011501D01*
X016148Y011484D01*
X016152Y011467D01*
X016159Y011451D01*
X016169Y011437D01*
X016182Y011424D01*
X016196Y011414D01*
X016212Y011407D01*
X016229Y011403D01*
X016246Y011401D01*
X016746Y011401D02*
X016763Y011403D01*
X016780Y011407D01*
X016796Y011414D01*
X016810Y011424D01*
X016823Y011437D01*
X016833Y011451D01*
X016840Y011467D01*
X016844Y011484D01*
X016846Y011501D01*
X015346Y011501D02*
X015346Y011601D01*
X015296Y011651D01*
X015296Y012551D01*
X015346Y012601D01*
X015346Y012701D01*
X015344Y012718D01*
X015340Y012735D01*
X015333Y012751D01*
X015323Y012765D01*
X015310Y012778D01*
X015296Y012788D01*
X015280Y012795D01*
X015263Y012799D01*
X015246Y012801D01*
X014746Y012801D02*
X014729Y012799D01*
X014712Y012795D01*
X014696Y012788D01*
X014682Y012778D01*
X014669Y012765D01*
X014659Y012751D01*
X014652Y012735D01*
X014648Y012718D01*
X014646Y012701D01*
X014646Y012601D01*
X014696Y012551D01*
X014696Y011651D01*
X014646Y011601D01*
X014646Y011501D01*
X014648Y011484D01*
X014652Y011467D01*
X014659Y011451D01*
X014669Y011437D01*
X014682Y011424D01*
X014696Y011414D01*
X014712Y011407D01*
X014729Y011403D01*
X014746Y011401D01*
X015246Y011401D02*
X015263Y011403D01*
X015280Y011407D01*
X015296Y011414D01*
X015310Y011424D01*
X015323Y011437D01*
X015333Y011451D01*
X015340Y011467D01*
X015344Y011484D01*
X015346Y011501D01*
X014446Y010251D02*
X014446Y008951D01*
X014444Y008925D01*
X014439Y008899D01*
X014431Y008874D01*
X014419Y008851D01*
X014405Y008829D01*
X014387Y008810D01*
X014368Y008792D01*
X014346Y008778D01*
X014323Y008766D01*
X014298Y008758D01*
X014272Y008753D01*
X014246Y008751D01*
X013746Y008751D01*
X013720Y008753D01*
X013694Y008758D01*
X013669Y008766D01*
X013646Y008778D01*
X013624Y008792D01*
X013605Y008810D01*
X013587Y008829D01*
X013573Y008851D01*
X013561Y008874D01*
X013553Y008899D01*
X013548Y008925D01*
X013546Y008951D01*
X013546Y010251D01*
X013548Y010277D01*
X013553Y010303D01*
X013561Y010328D01*
X013573Y010351D01*
X013587Y010373D01*
X013605Y010392D01*
X013624Y010410D01*
X013646Y010424D01*
X013669Y010436D01*
X013694Y010444D01*
X013720Y010449D01*
X013746Y010451D01*
X014246Y010451D01*
X014272Y010449D01*
X014298Y010444D01*
X014323Y010436D01*
X014346Y010424D01*
X014368Y010410D01*
X014387Y010392D01*
X014405Y010373D01*
X014419Y010351D01*
X014431Y010328D01*
X014439Y010303D01*
X014444Y010277D01*
X014446Y010251D01*
X013846Y011501D02*
X013846Y011601D01*
X013796Y011651D01*
X013796Y012551D01*
X013846Y012601D01*
X013846Y012701D01*
X013844Y012718D01*
X013840Y012735D01*
X013833Y012751D01*
X013823Y012765D01*
X013810Y012778D01*
X013796Y012788D01*
X013780Y012795D01*
X013763Y012799D01*
X013746Y012801D01*
X013246Y012801D02*
X013229Y012799D01*
X013212Y012795D01*
X013196Y012788D01*
X013182Y012778D01*
X013169Y012765D01*
X013159Y012751D01*
X013152Y012735D01*
X013148Y012718D01*
X013146Y012701D01*
X013146Y012601D01*
X013196Y012551D01*
X013196Y011651D01*
X013146Y011601D01*
X013146Y011501D01*
X013148Y011484D01*
X013152Y011467D01*
X013159Y011451D01*
X013169Y011437D01*
X013182Y011424D01*
X013196Y011414D01*
X013212Y011407D01*
X013229Y011403D01*
X013246Y011401D01*
X013746Y011401D02*
X013763Y011403D01*
X013780Y011407D01*
X013796Y011414D01*
X013810Y011424D01*
X013823Y011437D01*
X013833Y011451D01*
X013840Y011467D01*
X013844Y011484D01*
X013846Y011501D01*
X012246Y010801D02*
X012246Y009401D01*
X012196Y009351D01*
X008796Y009351D01*
X008746Y009401D01*
X008746Y010801D01*
X008796Y010851D01*
X012196Y010851D01*
X012246Y010801D01*
X011096Y010101D02*
X010866Y010101D01*
X010126Y010101D02*
X009896Y010101D01*
X007946Y010251D02*
X007946Y008951D01*
X007944Y008925D01*
X007939Y008899D01*
X007931Y008874D01*
X007919Y008851D01*
X007905Y008829D01*
X007887Y008810D01*
X007868Y008792D01*
X007846Y008778D01*
X007823Y008766D01*
X007798Y008758D01*
X007772Y008753D01*
X007746Y008751D01*
X007246Y008751D01*
X007220Y008753D01*
X007194Y008758D01*
X007169Y008766D01*
X007146Y008778D01*
X007124Y008792D01*
X007105Y008810D01*
X007087Y008829D01*
X007073Y008851D01*
X007061Y008874D01*
X007053Y008899D01*
X007048Y008925D01*
X007046Y008951D01*
X007046Y010251D01*
X007048Y010277D01*
X007053Y010303D01*
X007061Y010328D01*
X007073Y010351D01*
X007087Y010373D01*
X007105Y010392D01*
X007124Y010410D01*
X007146Y010424D01*
X007169Y010436D01*
X007194Y010444D01*
X007220Y010449D01*
X007246Y010451D01*
X007746Y010451D01*
X007772Y010449D01*
X007798Y010444D01*
X007823Y010436D01*
X007846Y010424D01*
X007868Y010410D01*
X007887Y010392D01*
X007905Y010373D01*
X007919Y010351D01*
X007931Y010328D01*
X007939Y010303D01*
X007944Y010277D01*
X007946Y010251D01*
X006446Y010251D02*
X006446Y008951D01*
X006444Y008925D01*
X006439Y008899D01*
X006431Y008874D01*
X006419Y008851D01*
X006405Y008829D01*
X006387Y008810D01*
X006368Y008792D01*
X006346Y008778D01*
X006323Y008766D01*
X006298Y008758D01*
X006272Y008753D01*
X006246Y008751D01*
X005746Y008751D01*
X005720Y008753D01*
X005694Y008758D01*
X005669Y008766D01*
X005646Y008778D01*
X005624Y008792D01*
X005605Y008810D01*
X005587Y008829D01*
X005573Y008851D01*
X005561Y008874D01*
X005553Y008899D01*
X005548Y008925D01*
X005546Y008951D01*
X005546Y010251D01*
X005548Y010277D01*
X005553Y010303D01*
X005561Y010328D01*
X005573Y010351D01*
X005587Y010373D01*
X005605Y010392D01*
X005624Y010410D01*
X005646Y010424D01*
X005669Y010436D01*
X005694Y010444D01*
X005720Y010449D01*
X005746Y010451D01*
X006246Y010451D01*
X006272Y010449D01*
X006298Y010444D01*
X006323Y010436D01*
X006346Y010424D01*
X006368Y010410D01*
X006387Y010392D01*
X006405Y010373D01*
X006419Y010351D01*
X006431Y010328D01*
X006439Y010303D01*
X006444Y010277D01*
X006446Y010251D01*
X004896Y010401D02*
X004846Y010401D01*
X004146Y010401D01*
X004096Y010401D01*
X004096Y012551D01*
X004098Y012568D01*
X004102Y012585D01*
X004109Y012601D01*
X004119Y012615D01*
X004132Y012628D01*
X004146Y012638D01*
X004162Y012645D01*
X004179Y012649D01*
X004196Y012651D01*
X004796Y012651D01*
X004813Y012649D01*
X004830Y012645D01*
X004846Y012638D01*
X004860Y012628D01*
X004873Y012615D01*
X004883Y012601D01*
X004890Y012585D01*
X004894Y012568D01*
X004896Y012551D01*
X004896Y010401D01*
X004846Y010401D02*
X004846Y010251D01*
X004146Y010251D01*
X004146Y010401D01*
X004496Y011051D02*
X004496Y011251D01*
X004696Y011251D01*
X004696Y011401D02*
X004696Y011551D01*
X004296Y011551D01*
X004296Y011401D01*
X004696Y011401D01*
X004496Y011251D02*
X004296Y011251D01*
X004296Y011701D02*
X004496Y011701D01*
X004696Y011701D01*
X004496Y011701D02*
X004496Y011901D01*
X003246Y010451D02*
X002746Y010451D01*
X002720Y010449D01*
X002694Y010444D01*
X002669Y010436D01*
X002646Y010424D01*
X002624Y010410D01*
X002605Y010392D01*
X002587Y010373D01*
X002573Y010351D01*
X002561Y010328D01*
X002553Y010303D01*
X002548Y010277D01*
X002546Y010251D01*
X002546Y008951D01*
X002548Y008925D01*
X002553Y008899D01*
X002561Y008874D01*
X002573Y008851D01*
X002587Y008829D01*
X002605Y008810D01*
X002624Y008792D01*
X002646Y008778D01*
X002669Y008766D01*
X002694Y008758D01*
X002720Y008753D01*
X002746Y008751D01*
X003246Y008751D01*
X003272Y008753D01*
X003298Y008758D01*
X003323Y008766D01*
X003346Y008778D01*
X003368Y008792D01*
X003387Y008810D01*
X003405Y008829D01*
X003419Y008851D01*
X003431Y008874D01*
X003439Y008899D01*
X003444Y008925D01*
X003446Y008951D01*
X003446Y010251D01*
X003444Y010277D01*
X003439Y010303D01*
X003431Y010328D01*
X003419Y010351D01*
X003405Y010373D01*
X003387Y010392D01*
X003368Y010410D01*
X003346Y010424D01*
X003323Y010436D01*
X003298Y010444D01*
X003272Y010449D01*
X003246Y010451D01*
X002846Y013651D02*
X004146Y013651D01*
X004172Y013653D01*
X004198Y013658D01*
X004223Y013666D01*
X004246Y013678D01*
X004268Y013692D01*
X004287Y013710D01*
X004305Y013729D01*
X004319Y013751D01*
X004331Y013774D01*
X004339Y013799D01*
X004344Y013825D01*
X004346Y013851D01*
X004346Y014351D01*
X004344Y014377D01*
X004339Y014403D01*
X004331Y014428D01*
X004319Y014451D01*
X004305Y014473D01*
X004287Y014492D01*
X004268Y014510D01*
X004246Y014524D01*
X004223Y014536D01*
X004198Y014544D01*
X004172Y014549D01*
X004146Y014551D01*
X002846Y014551D01*
X002820Y014549D01*
X002794Y014544D01*
X002769Y014536D01*
X002746Y014524D01*
X002724Y014510D01*
X002705Y014492D01*
X002687Y014473D01*
X002673Y014451D01*
X002661Y014428D01*
X002653Y014403D01*
X002648Y014377D01*
X002646Y014351D01*
X002646Y013851D01*
X002648Y013825D01*
X002653Y013799D01*
X002661Y013774D01*
X002673Y013751D01*
X002687Y013729D01*
X002705Y013710D01*
X002724Y013692D01*
X002746Y013678D01*
X002769Y013666D01*
X002794Y013658D01*
X002820Y013653D01*
X002846Y013651D01*
X002596Y015601D02*
X003396Y015601D01*
X003496Y015701D01*
X003596Y015601D01*
X004396Y015601D01*
X004496Y015701D01*
X004496Y016501D01*
X004396Y016601D01*
X003596Y016601D01*
X003496Y016501D01*
X003396Y016601D01*
X002596Y016601D01*
X002496Y016501D01*
X002496Y015701D01*
X002596Y015601D01*
X003246Y017601D02*
X003746Y017601D01*
X003996Y017851D01*
X003996Y018351D01*
X003746Y018601D01*
X003996Y018851D01*
X003996Y019351D01*
X003746Y019601D01*
X003996Y019851D01*
X003996Y020351D01*
X003746Y020601D01*
X003246Y020601D01*
X002996Y020351D01*
X002996Y019851D01*
X003246Y019601D01*
X002996Y019351D01*
X002996Y018851D01*
X003246Y018601D01*
X002996Y018351D01*
X002996Y017851D01*
X003246Y017601D01*
X005996Y015351D02*
X005996Y014851D01*
X006246Y014601D01*
X005996Y014351D01*
X005996Y013851D01*
X006246Y013601D01*
X005996Y013351D01*
X005996Y012851D01*
X006246Y012601D01*
X006746Y012601D01*
X006996Y012851D01*
X006996Y013351D01*
X006746Y013601D01*
X006996Y013851D01*
X006996Y014351D01*
X006746Y014601D01*
X006996Y014851D01*
X006996Y015351D01*
X006746Y015601D01*
X006246Y015601D01*
X005996Y015351D01*
X008496Y014851D02*
X008496Y013351D01*
X008746Y013101D01*
X009246Y013101D01*
X009496Y013351D01*
X009746Y013101D01*
X010246Y013101D01*
X010496Y013351D01*
X010746Y013101D01*
X011246Y013101D01*
X011496Y013351D01*
X011496Y014851D01*
X011246Y015101D01*
X010746Y015101D01*
X010496Y014851D01*
X010246Y015101D01*
X009746Y015101D01*
X009496Y014851D01*
X009246Y015101D01*
X008746Y015101D01*
X008496Y014851D01*
X012146Y014351D02*
X012146Y013851D01*
X012148Y013825D01*
X012153Y013799D01*
X012161Y013774D01*
X012173Y013751D01*
X012187Y013729D01*
X012205Y013710D01*
X012224Y013692D01*
X012246Y013678D01*
X012269Y013666D01*
X012294Y013658D01*
X012320Y013653D01*
X012346Y013651D01*
X013646Y013651D01*
X013672Y013653D01*
X013698Y013658D01*
X013723Y013666D01*
X013746Y013678D01*
X013768Y013692D01*
X013787Y013710D01*
X013805Y013729D01*
X013819Y013751D01*
X013831Y013774D01*
X013839Y013799D01*
X013844Y013825D01*
X013846Y013851D01*
X013846Y014351D01*
X013844Y014377D01*
X013839Y014403D01*
X013831Y014428D01*
X013819Y014451D01*
X013805Y014473D01*
X013787Y014492D01*
X013768Y014510D01*
X013746Y014524D01*
X013723Y014536D01*
X013698Y014544D01*
X013672Y014549D01*
X013646Y014551D01*
X012346Y014551D01*
X012320Y014549D01*
X012294Y014544D01*
X012269Y014536D01*
X012246Y014524D01*
X012224Y014510D01*
X012205Y014492D01*
X012187Y014473D01*
X012173Y014451D01*
X012161Y014428D01*
X012153Y014403D01*
X012148Y014377D01*
X012146Y014351D01*
X015496Y017851D02*
X015746Y017601D01*
X016246Y017601D01*
X016496Y017851D01*
X016496Y018351D01*
X016246Y018601D01*
X016496Y018851D01*
X016496Y019351D01*
X016246Y019601D01*
X016496Y019851D01*
X016496Y020351D01*
X016246Y020601D01*
X016496Y020851D01*
X016496Y021351D01*
X016246Y021601D01*
X015746Y021601D01*
X015496Y021351D01*
X015496Y020851D01*
X015746Y020601D01*
X015496Y020351D01*
X015496Y019851D01*
X015746Y019601D01*
X015496Y019351D01*
X015496Y018851D01*
X015746Y018601D01*
X015496Y018351D01*
X015496Y017851D01*
X015796Y016801D02*
X015796Y016601D01*
X015696Y016701D02*
X015896Y016701D01*
X016146Y016701D02*
X016346Y016701D01*
X015146Y016101D02*
X015148Y016159D01*
X015154Y016217D01*
X015164Y016274D01*
X015178Y016330D01*
X015195Y016386D01*
X015216Y016440D01*
X015241Y016492D01*
X015270Y016543D01*
X015302Y016591D01*
X015337Y016637D01*
X015375Y016681D01*
X015416Y016722D01*
X015460Y016760D01*
X015506Y016795D01*
X015554Y016827D01*
X015605Y016856D01*
X015657Y016881D01*
X015711Y016902D01*
X015767Y016919D01*
X015823Y016933D01*
X015880Y016943D01*
X015938Y016949D01*
X015996Y016951D01*
X016054Y016949D01*
X016112Y016943D01*
X016169Y016933D01*
X016225Y016919D01*
X016281Y016902D01*
X016335Y016881D01*
X016387Y016856D01*
X016438Y016827D01*
X016486Y016795D01*
X016532Y016760D01*
X016576Y016722D01*
X016617Y016681D01*
X016655Y016637D01*
X016690Y016591D01*
X016722Y016543D01*
X016751Y016492D01*
X016776Y016440D01*
X016797Y016386D01*
X016814Y016330D01*
X016828Y016274D01*
X016838Y016217D01*
X016844Y016159D01*
X016846Y016101D01*
X016844Y016043D01*
X016838Y015985D01*
X016828Y015928D01*
X016814Y015872D01*
X016797Y015816D01*
X016776Y015762D01*
X016751Y015710D01*
X016722Y015659D01*
X016690Y015611D01*
X016655Y015565D01*
X016617Y015521D01*
X016576Y015480D01*
X016532Y015442D01*
X016486Y015407D01*
X016438Y015375D01*
X016387Y015346D01*
X016335Y015321D01*
X016281Y015300D01*
X016225Y015283D01*
X016169Y015269D01*
X016112Y015259D01*
X016054Y015253D01*
X015996Y015251D01*
X015938Y015253D01*
X015880Y015259D01*
X015823Y015269D01*
X015767Y015283D01*
X015711Y015300D01*
X015657Y015321D01*
X015605Y015346D01*
X015554Y015375D01*
X015506Y015407D01*
X015460Y015442D01*
X015416Y015480D01*
X015375Y015521D01*
X015337Y015565D01*
X015302Y015611D01*
X015270Y015659D01*
X015241Y015710D01*
X015216Y015762D01*
X015195Y015816D01*
X015178Y015872D01*
X015164Y015928D01*
X015154Y015985D01*
X015148Y016043D01*
X015146Y016101D01*
X017633Y018781D02*
X018358Y018781D01*
X018358Y020420D01*
X017633Y020420D01*
X017633Y018781D01*
X017996Y019351D02*
X017996Y019601D01*
X018246Y019601D01*
X017996Y019601D02*
X018246Y020001D01*
X017746Y020001D01*
X017996Y019601D01*
X017746Y019601D01*
X017996Y019601D02*
X017996Y020201D01*
X017996Y022251D02*
X018096Y022251D01*
X018113Y022253D01*
X018130Y022257D01*
X018146Y022264D01*
X018160Y022274D01*
X018173Y022287D01*
X018183Y022301D01*
X018190Y022317D01*
X018194Y022334D01*
X018196Y022351D01*
X017996Y022251D02*
X017946Y022301D01*
X017046Y022301D01*
X016996Y022251D01*
X016896Y022251D01*
X016879Y022253D01*
X016862Y022257D01*
X016846Y022264D01*
X016832Y022274D01*
X016819Y022287D01*
X016809Y022301D01*
X016802Y022317D01*
X016798Y022334D01*
X016796Y022351D01*
X016796Y022851D02*
X016798Y022868D01*
X016802Y022885D01*
X016809Y022901D01*
X016819Y022915D01*
X016832Y022928D01*
X016846Y022938D01*
X016862Y022945D01*
X016879Y022949D01*
X016896Y022951D01*
X016996Y022951D01*
X017046Y022901D01*
X017946Y022901D01*
X017996Y022951D01*
X018096Y022951D01*
X018113Y022949D01*
X018130Y022945D01*
X018146Y022938D01*
X018160Y022928D01*
X018173Y022915D01*
X018183Y022901D01*
X018190Y022885D01*
X018194Y022868D01*
X018196Y022851D01*
X018246Y024101D02*
X017996Y024351D01*
X017746Y024101D01*
X017246Y024101D01*
X016996Y024351D01*
X016746Y024101D01*
X016246Y024101D01*
X015996Y024351D01*
X015746Y024101D01*
X015246Y024101D01*
X014996Y024351D01*
X014996Y024851D01*
X015246Y025101D01*
X015746Y025101D01*
X015996Y024851D01*
X016246Y025101D01*
X016746Y025101D01*
X016996Y024851D01*
X017246Y025101D01*
X017746Y025101D01*
X017996Y024851D01*
X018246Y025101D01*
X018746Y025101D01*
X018996Y024851D01*
X019246Y025101D01*
X019746Y025101D01*
X019996Y024851D01*
X019996Y024351D01*
X019746Y024101D01*
X019246Y024101D01*
X018996Y024351D01*
X018746Y024101D01*
X018246Y024101D01*
X017146Y025651D02*
X015846Y025651D01*
X015820Y025653D01*
X015794Y025658D01*
X015769Y025666D01*
X015746Y025678D01*
X015724Y025692D01*
X015705Y025710D01*
X015687Y025729D01*
X015673Y025751D01*
X015661Y025774D01*
X015653Y025799D01*
X015648Y025825D01*
X015646Y025851D01*
X015646Y026351D01*
X015648Y026377D01*
X015653Y026403D01*
X015661Y026428D01*
X015673Y026451D01*
X015687Y026473D01*
X015705Y026492D01*
X015724Y026510D01*
X015746Y026524D01*
X015769Y026536D01*
X015794Y026544D01*
X015820Y026549D01*
X015846Y026551D01*
X017146Y026551D01*
X017172Y026549D01*
X017198Y026544D01*
X017223Y026536D01*
X017246Y026524D01*
X017268Y026510D01*
X017287Y026492D01*
X017305Y026473D01*
X017319Y026451D01*
X017331Y026428D01*
X017339Y026403D01*
X017344Y026377D01*
X017346Y026351D01*
X017346Y025851D01*
X017344Y025825D01*
X017339Y025799D01*
X017331Y025774D01*
X017319Y025751D01*
X017305Y025729D01*
X017287Y025710D01*
X017268Y025692D01*
X017246Y025678D01*
X017223Y025666D01*
X017198Y025658D01*
X017172Y025653D01*
X017146Y025651D01*
X017146Y027651D02*
X015846Y027651D01*
X015820Y027653D01*
X015794Y027658D01*
X015769Y027666D01*
X015746Y027678D01*
X015724Y027692D01*
X015705Y027710D01*
X015687Y027729D01*
X015673Y027751D01*
X015661Y027774D01*
X015653Y027799D01*
X015648Y027825D01*
X015646Y027851D01*
X015646Y028351D01*
X015648Y028377D01*
X015653Y028403D01*
X015661Y028428D01*
X015673Y028451D01*
X015687Y028473D01*
X015705Y028492D01*
X015724Y028510D01*
X015746Y028524D01*
X015769Y028536D01*
X015794Y028544D01*
X015820Y028549D01*
X015846Y028551D01*
X017146Y028551D01*
X017172Y028549D01*
X017198Y028544D01*
X017223Y028536D01*
X017246Y028524D01*
X017268Y028510D01*
X017287Y028492D01*
X017305Y028473D01*
X017319Y028451D01*
X017331Y028428D01*
X017339Y028403D01*
X017344Y028377D01*
X017346Y028351D01*
X017346Y027851D01*
X017344Y027825D01*
X017339Y027799D01*
X017331Y027774D01*
X017319Y027751D01*
X017305Y027729D01*
X017287Y027710D01*
X017268Y027692D01*
X017246Y027678D01*
X017223Y027666D01*
X017198Y027658D01*
X017172Y027653D01*
X017146Y027651D01*
X018646Y027601D02*
X018648Y027674D01*
X018654Y027747D01*
X018664Y027819D01*
X018678Y027891D01*
X018695Y027962D01*
X018717Y028032D01*
X018742Y028101D01*
X018771Y028168D01*
X018803Y028233D01*
X018839Y028297D01*
X018879Y028359D01*
X018921Y028418D01*
X018967Y028475D01*
X019016Y028529D01*
X019068Y028581D01*
X019122Y028630D01*
X019179Y028676D01*
X019238Y028718D01*
X019300Y028758D01*
X019364Y028794D01*
X019429Y028826D01*
X019496Y028855D01*
X019565Y028880D01*
X019635Y028902D01*
X019706Y028919D01*
X019778Y028933D01*
X019850Y028943D01*
X019923Y028949D01*
X019996Y028951D01*
X020069Y028949D01*
X020142Y028943D01*
X020214Y028933D01*
X020286Y028919D01*
X020357Y028902D01*
X020427Y028880D01*
X020496Y028855D01*
X020563Y028826D01*
X020628Y028794D01*
X020692Y028758D01*
X020754Y028718D01*
X020813Y028676D01*
X020870Y028630D01*
X020924Y028581D01*
X020976Y028529D01*
X021025Y028475D01*
X021071Y028418D01*
X021113Y028359D01*
X021153Y028297D01*
X021189Y028233D01*
X021221Y028168D01*
X021250Y028101D01*
X021275Y028032D01*
X021297Y027962D01*
X021314Y027891D01*
X021328Y027819D01*
X021338Y027747D01*
X021344Y027674D01*
X021346Y027601D01*
X021344Y027528D01*
X021338Y027455D01*
X021328Y027383D01*
X021314Y027311D01*
X021297Y027240D01*
X021275Y027170D01*
X021250Y027101D01*
X021221Y027034D01*
X021189Y026969D01*
X021153Y026905D01*
X021113Y026843D01*
X021071Y026784D01*
X021025Y026727D01*
X020976Y026673D01*
X020924Y026621D01*
X020870Y026572D01*
X020813Y026526D01*
X020754Y026484D01*
X020692Y026444D01*
X020628Y026408D01*
X020563Y026376D01*
X020496Y026347D01*
X020427Y026322D01*
X020357Y026300D01*
X020286Y026283D01*
X020214Y026269D01*
X020142Y026259D01*
X020069Y026253D01*
X019996Y026251D01*
X019923Y026253D01*
X019850Y026259D01*
X019778Y026269D01*
X019706Y026283D01*
X019635Y026300D01*
X019565Y026322D01*
X019496Y026347D01*
X019429Y026376D01*
X019364Y026408D01*
X019300Y026444D01*
X019238Y026484D01*
X019179Y026526D01*
X019122Y026572D01*
X019068Y026621D01*
X019016Y026673D01*
X018967Y026727D01*
X018921Y026784D01*
X018879Y026843D01*
X018839Y026905D01*
X018803Y026969D01*
X018771Y027034D01*
X018742Y027101D01*
X018717Y027170D01*
X018695Y027240D01*
X018678Y027311D01*
X018664Y027383D01*
X018654Y027455D01*
X018648Y027528D01*
X018646Y027601D01*
X019496Y023101D02*
X019496Y014101D01*
X019496Y013101D01*
X019746Y013351D01*
X019496Y013101D02*
X020496Y013101D01*
X020496Y014101D01*
X020496Y023101D01*
X019496Y023101D01*
X012923Y022141D02*
X006695Y022141D01*
X006695Y024230D02*
X012923Y024230D01*
X019496Y014101D02*
X020496Y014101D01*
X020246Y013851D01*
X020246Y013351D02*
X020496Y013101D01*
X019746Y013851D02*
X019496Y014101D01*
X018646Y002101D02*
X018648Y002174D01*
X018654Y002247D01*
X018664Y002319D01*
X018678Y002391D01*
X018695Y002462D01*
X018717Y002532D01*
X018742Y002601D01*
X018771Y002668D01*
X018803Y002733D01*
X018839Y002797D01*
X018879Y002859D01*
X018921Y002918D01*
X018967Y002975D01*
X019016Y003029D01*
X019068Y003081D01*
X019122Y003130D01*
X019179Y003176D01*
X019238Y003218D01*
X019300Y003258D01*
X019364Y003294D01*
X019429Y003326D01*
X019496Y003355D01*
X019565Y003380D01*
X019635Y003402D01*
X019706Y003419D01*
X019778Y003433D01*
X019850Y003443D01*
X019923Y003449D01*
X019996Y003451D01*
X020069Y003449D01*
X020142Y003443D01*
X020214Y003433D01*
X020286Y003419D01*
X020357Y003402D01*
X020427Y003380D01*
X020496Y003355D01*
X020563Y003326D01*
X020628Y003294D01*
X020692Y003258D01*
X020754Y003218D01*
X020813Y003176D01*
X020870Y003130D01*
X020924Y003081D01*
X020976Y003029D01*
X021025Y002975D01*
X021071Y002918D01*
X021113Y002859D01*
X021153Y002797D01*
X021189Y002733D01*
X021221Y002668D01*
X021250Y002601D01*
X021275Y002532D01*
X021297Y002462D01*
X021314Y002391D01*
X021328Y002319D01*
X021338Y002247D01*
X021344Y002174D01*
X021346Y002101D01*
X021344Y002028D01*
X021338Y001955D01*
X021328Y001883D01*
X021314Y001811D01*
X021297Y001740D01*
X021275Y001670D01*
X021250Y001601D01*
X021221Y001534D01*
X021189Y001469D01*
X021153Y001405D01*
X021113Y001343D01*
X021071Y001284D01*
X021025Y001227D01*
X020976Y001173D01*
X020924Y001121D01*
X020870Y001072D01*
X020813Y001026D01*
X020754Y000984D01*
X020692Y000944D01*
X020628Y000908D01*
X020563Y000876D01*
X020496Y000847D01*
X020427Y000822D01*
X020357Y000800D01*
X020286Y000783D01*
X020214Y000769D01*
X020142Y000759D01*
X020069Y000753D01*
X019996Y000751D01*
X019923Y000753D01*
X019850Y000759D01*
X019778Y000769D01*
X019706Y000783D01*
X019635Y000800D01*
X019565Y000822D01*
X019496Y000847D01*
X019429Y000876D01*
X019364Y000908D01*
X019300Y000944D01*
X019238Y000984D01*
X019179Y001026D01*
X019122Y001072D01*
X019068Y001121D01*
X019016Y001173D01*
X018967Y001227D01*
X018921Y001284D01*
X018879Y001343D01*
X018839Y001405D01*
X018803Y001469D01*
X018771Y001534D01*
X018742Y001601D01*
X018717Y001670D01*
X018695Y001740D01*
X018678Y001811D01*
X018664Y001883D01*
X018654Y001955D01*
X018648Y002028D01*
X018646Y002101D01*
X002646Y002101D02*
X002648Y002174D01*
X002654Y002247D01*
X002664Y002319D01*
X002678Y002391D01*
X002695Y002462D01*
X002717Y002532D01*
X002742Y002601D01*
X002771Y002668D01*
X002803Y002733D01*
X002839Y002797D01*
X002879Y002859D01*
X002921Y002918D01*
X002967Y002975D01*
X003016Y003029D01*
X003068Y003081D01*
X003122Y003130D01*
X003179Y003176D01*
X003238Y003218D01*
X003300Y003258D01*
X003364Y003294D01*
X003429Y003326D01*
X003496Y003355D01*
X003565Y003380D01*
X003635Y003402D01*
X003706Y003419D01*
X003778Y003433D01*
X003850Y003443D01*
X003923Y003449D01*
X003996Y003451D01*
X004069Y003449D01*
X004142Y003443D01*
X004214Y003433D01*
X004286Y003419D01*
X004357Y003402D01*
X004427Y003380D01*
X004496Y003355D01*
X004563Y003326D01*
X004628Y003294D01*
X004692Y003258D01*
X004754Y003218D01*
X004813Y003176D01*
X004870Y003130D01*
X004924Y003081D01*
X004976Y003029D01*
X005025Y002975D01*
X005071Y002918D01*
X005113Y002859D01*
X005153Y002797D01*
X005189Y002733D01*
X005221Y002668D01*
X005250Y002601D01*
X005275Y002532D01*
X005297Y002462D01*
X005314Y002391D01*
X005328Y002319D01*
X005338Y002247D01*
X005344Y002174D01*
X005346Y002101D01*
X005344Y002028D01*
X005338Y001955D01*
X005328Y001883D01*
X005314Y001811D01*
X005297Y001740D01*
X005275Y001670D01*
X005250Y001601D01*
X005221Y001534D01*
X005189Y001469D01*
X005153Y001405D01*
X005113Y001343D01*
X005071Y001284D01*
X005025Y001227D01*
X004976Y001173D01*
X004924Y001121D01*
X004870Y001072D01*
X004813Y001026D01*
X004754Y000984D01*
X004692Y000944D01*
X004628Y000908D01*
X004563Y000876D01*
X004496Y000847D01*
X004427Y000822D01*
X004357Y000800D01*
X004286Y000783D01*
X004214Y000769D01*
X004142Y000759D01*
X004069Y000753D01*
X003996Y000751D01*
X003923Y000753D01*
X003850Y000759D01*
X003778Y000769D01*
X003706Y000783D01*
X003635Y000800D01*
X003565Y000822D01*
X003496Y000847D01*
X003429Y000876D01*
X003364Y000908D01*
X003300Y000944D01*
X003238Y000984D01*
X003179Y001026D01*
X003122Y001072D01*
X003068Y001121D01*
X003016Y001173D01*
X002967Y001227D01*
X002921Y001284D01*
X002879Y001343D01*
X002839Y001405D01*
X002803Y001469D01*
X002771Y001534D01*
X002742Y001601D01*
X002717Y001670D01*
X002695Y001740D01*
X002678Y001811D01*
X002664Y001883D01*
X002654Y001955D01*
X002648Y002028D01*
X002646Y002101D01*
X002846Y022151D02*
X004146Y022151D01*
X004172Y022153D01*
X004198Y022158D01*
X004223Y022166D01*
X004246Y022178D01*
X004268Y022192D01*
X004287Y022210D01*
X004305Y022229D01*
X004319Y022251D01*
X004331Y022274D01*
X004339Y022299D01*
X004344Y022325D01*
X004346Y022351D01*
X004346Y022851D01*
X004344Y022877D01*
X004339Y022903D01*
X004331Y022928D01*
X004319Y022951D01*
X004305Y022973D01*
X004287Y022992D01*
X004268Y023010D01*
X004246Y023024D01*
X004223Y023036D01*
X004198Y023044D01*
X004172Y023049D01*
X004146Y023051D01*
X002846Y023051D01*
X002820Y023049D01*
X002794Y023044D01*
X002769Y023036D01*
X002746Y023024D01*
X002724Y023010D01*
X002705Y022992D01*
X002687Y022973D01*
X002673Y022951D01*
X002661Y022928D01*
X002653Y022903D01*
X002648Y022877D01*
X002646Y022851D01*
X002646Y022351D01*
X002648Y022325D01*
X002653Y022299D01*
X002661Y022274D01*
X002673Y022251D01*
X002687Y022229D01*
X002705Y022210D01*
X002724Y022192D01*
X002746Y022178D01*
X002769Y022166D01*
X002794Y022158D01*
X002820Y022153D01*
X002846Y022151D01*
X002846Y024151D02*
X004146Y024151D01*
X004172Y024153D01*
X004198Y024158D01*
X004223Y024166D01*
X004246Y024178D01*
X004268Y024192D01*
X004287Y024210D01*
X004305Y024229D01*
X004319Y024251D01*
X004331Y024274D01*
X004339Y024299D01*
X004344Y024325D01*
X004346Y024351D01*
X004346Y024851D01*
X004344Y024877D01*
X004339Y024903D01*
X004331Y024928D01*
X004319Y024951D01*
X004305Y024973D01*
X004287Y024992D01*
X004268Y025010D01*
X004246Y025024D01*
X004223Y025036D01*
X004198Y025044D01*
X004172Y025049D01*
X004146Y025051D01*
X002846Y025051D01*
X002820Y025049D01*
X002794Y025044D01*
X002769Y025036D01*
X002746Y025024D01*
X002724Y025010D01*
X002705Y024992D01*
X002687Y024973D01*
X002673Y024951D01*
X002661Y024928D01*
X002653Y024903D01*
X002648Y024877D01*
X002646Y024851D01*
X002646Y024351D01*
X002648Y024325D01*
X002653Y024299D01*
X002661Y024274D01*
X002673Y024251D01*
X002687Y024229D01*
X002705Y024210D01*
X002724Y024192D01*
X002746Y024178D01*
X002769Y024166D01*
X002794Y024158D01*
X002820Y024153D01*
X002846Y024151D01*
X002646Y027601D02*
X002648Y027674D01*
X002654Y027747D01*
X002664Y027819D01*
X002678Y027891D01*
X002695Y027962D01*
X002717Y028032D01*
X002742Y028101D01*
X002771Y028168D01*
X002803Y028233D01*
X002839Y028297D01*
X002879Y028359D01*
X002921Y028418D01*
X002967Y028475D01*
X003016Y028529D01*
X003068Y028581D01*
X003122Y028630D01*
X003179Y028676D01*
X003238Y028718D01*
X003300Y028758D01*
X003364Y028794D01*
X003429Y028826D01*
X003496Y028855D01*
X003565Y028880D01*
X003635Y028902D01*
X003706Y028919D01*
X003778Y028933D01*
X003850Y028943D01*
X003923Y028949D01*
X003996Y028951D01*
X004069Y028949D01*
X004142Y028943D01*
X004214Y028933D01*
X004286Y028919D01*
X004357Y028902D01*
X004427Y028880D01*
X004496Y028855D01*
X004563Y028826D01*
X004628Y028794D01*
X004692Y028758D01*
X004754Y028718D01*
X004813Y028676D01*
X004870Y028630D01*
X004924Y028581D01*
X004976Y028529D01*
X005025Y028475D01*
X005071Y028418D01*
X005113Y028359D01*
X005153Y028297D01*
X005189Y028233D01*
X005221Y028168D01*
X005250Y028101D01*
X005275Y028032D01*
X005297Y027962D01*
X005314Y027891D01*
X005328Y027819D01*
X005338Y027747D01*
X005344Y027674D01*
X005346Y027601D01*
X005344Y027528D01*
X005338Y027455D01*
X005328Y027383D01*
X005314Y027311D01*
X005297Y027240D01*
X005275Y027170D01*
X005250Y027101D01*
X005221Y027034D01*
X005189Y026969D01*
X005153Y026905D01*
X005113Y026843D01*
X005071Y026784D01*
X005025Y026727D01*
X004976Y026673D01*
X004924Y026621D01*
X004870Y026572D01*
X004813Y026526D01*
X004754Y026484D01*
X004692Y026444D01*
X004628Y026408D01*
X004563Y026376D01*
X004496Y026347D01*
X004427Y026322D01*
X004357Y026300D01*
X004286Y026283D01*
X004214Y026269D01*
X004142Y026259D01*
X004069Y026253D01*
X003996Y026251D01*
X003923Y026253D01*
X003850Y026259D01*
X003778Y026269D01*
X003706Y026283D01*
X003635Y026300D01*
X003565Y026322D01*
X003496Y026347D01*
X003429Y026376D01*
X003364Y026408D01*
X003300Y026444D01*
X003238Y026484D01*
X003179Y026526D01*
X003122Y026572D01*
X003068Y026621D01*
X003016Y026673D01*
X002967Y026727D01*
X002921Y026784D01*
X002879Y026843D01*
X002839Y026905D01*
X002803Y026969D01*
X002771Y027034D01*
X002742Y027101D01*
X002717Y027170D01*
X002695Y027240D01*
X002678Y027311D01*
X002664Y027383D01*
X002654Y027455D01*
X002648Y027528D01*
X002646Y027601D01*
D13*
X005516Y028621D02*
X005822Y029081D01*
X005976Y029081D02*
X006206Y029081D01*
X006283Y029004D01*
X006283Y028928D01*
X006206Y028851D01*
X005976Y028851D01*
X006206Y028851D02*
X006283Y028774D01*
X006283Y028697D01*
X006206Y028621D01*
X005976Y028621D01*
X005976Y029081D01*
X005516Y029081D02*
X005822Y028621D01*
X006436Y028621D02*
X006743Y028621D01*
X006590Y028621D02*
X006590Y029081D01*
X006436Y028928D01*
X007079Y023956D02*
X007139Y023896D01*
X007452Y023134D01*
X006816Y022536D01*
X006679Y022437D01*
X007002Y022437D01*
X007052Y022525D01*
X007507Y022969D01*
X007682Y022536D01*
X007682Y022498D01*
X007649Y022437D01*
X009551Y022437D01*
X009656Y022470D01*
X009721Y022503D01*
X009804Y022596D01*
X009815Y022662D01*
X009853Y022722D01*
X009913Y022964D01*
X009913Y023112D01*
X009908Y023123D01*
X009793Y023178D01*
X009634Y023199D01*
X009743Y023199D01*
X009831Y023221D01*
X009897Y023249D01*
X009979Y023331D01*
X010001Y023386D01*
X010067Y023660D01*
X010083Y023704D01*
X010083Y023797D01*
X010061Y023852D01*
X010028Y023912D01*
X009985Y023940D01*
X009919Y023956D01*
X008674Y023956D01*
X008674Y023846D01*
X008652Y023748D01*
X008510Y023167D01*
X008433Y022854D01*
X008367Y022607D01*
X008323Y022476D01*
X008291Y022443D01*
X008274Y022443D01*
X008186Y022564D01*
X007879Y023320D01*
X008395Y023803D01*
X008471Y023868D01*
X008526Y023907D01*
X008598Y023956D01*
X008252Y023956D01*
X008247Y023934D01*
X008230Y023901D01*
X008208Y023874D01*
X007819Y023490D01*
X007682Y023835D01*
X007682Y023863D01*
X007666Y023890D01*
X007682Y023923D01*
X007682Y023956D01*
X007079Y023956D01*
X008937Y023106D02*
X008811Y022624D01*
X009343Y022624D01*
X009365Y022635D01*
X009403Y022679D01*
X009425Y022712D01*
X009508Y023035D01*
X009508Y023051D01*
X009480Y023090D01*
X009436Y023106D01*
X008937Y023106D01*
X008976Y023304D02*
X009091Y023770D01*
X009595Y023770D01*
X009645Y023742D01*
X009650Y023654D01*
X009573Y023364D01*
X009557Y023326D01*
X009524Y023304D01*
X008976Y023304D01*
X010144Y023210D02*
X010034Y022722D01*
X010023Y022635D01*
X010023Y022580D01*
X010039Y022520D01*
X010067Y022481D01*
X010111Y022448D01*
X010155Y022437D01*
X011240Y022437D01*
X011317Y022624D01*
X011246Y022613D01*
X010456Y022613D01*
X010434Y022629D01*
X010429Y022668D01*
X010440Y022701D01*
X010483Y022887D01*
X011383Y022887D01*
X011476Y023265D01*
X011476Y023457D01*
X011454Y023479D01*
X011383Y023534D01*
X011322Y023556D01*
X010462Y023556D01*
X010429Y023550D01*
X010363Y023528D01*
X010275Y023474D01*
X010226Y023402D01*
X010160Y023271D01*
X010144Y023210D01*
X010533Y023062D02*
X010538Y023057D01*
X011010Y023057D01*
X011070Y023293D01*
X011070Y023364D01*
X011054Y023380D01*
X011032Y023386D01*
X010642Y023386D01*
X010610Y023369D01*
X010588Y023331D01*
X010571Y023287D01*
X010533Y023062D01*
X011492Y022722D02*
X011602Y023210D01*
X011618Y023271D01*
X011684Y023402D01*
X011733Y023474D01*
X011821Y023528D01*
X011887Y023550D01*
X011920Y023556D01*
X012781Y023556D01*
X012841Y023534D01*
X012912Y023479D01*
X012934Y023457D01*
X012934Y023265D01*
X012841Y022887D01*
X011942Y022887D01*
X011898Y022701D01*
X011887Y022668D01*
X011892Y022629D01*
X011914Y022613D01*
X012704Y022613D01*
X012775Y022624D01*
X012698Y022437D01*
X011613Y022437D01*
X011569Y022448D01*
X011525Y022481D01*
X011498Y022520D01*
X011481Y022580D01*
X011481Y022635D01*
X011492Y022722D01*
X011991Y023062D02*
X011997Y023057D01*
X012468Y023057D01*
X012528Y023293D01*
X012528Y023364D01*
X012512Y023380D01*
X012490Y023386D01*
X012101Y023386D01*
X012068Y023369D01*
X012046Y023331D01*
X012029Y023287D01*
X011991Y023062D01*
X012353Y021845D02*
X012238Y021785D01*
X012029Y021610D01*
X011881Y021462D01*
X011865Y021418D01*
X011838Y021286D01*
X011832Y021176D01*
X011887Y021072D01*
X011980Y021012D01*
X012106Y021012D01*
X012265Y021034D01*
X012369Y021100D01*
X012512Y021133D01*
X012589Y021209D01*
X012693Y021292D01*
X012753Y021401D01*
X012764Y021473D01*
X012737Y021577D01*
X012644Y021653D01*
X012534Y021730D01*
X012457Y021752D01*
X012452Y021780D01*
X012413Y021823D01*
X012358Y021845D01*
X012298Y021659D02*
X012238Y021615D01*
X012095Y021505D01*
X012002Y021379D01*
X011953Y021220D01*
X011947Y021166D01*
X011997Y021138D01*
X012128Y021144D01*
X012260Y021193D01*
X012397Y021237D01*
X012512Y021303D01*
X012622Y021379D01*
X012622Y021511D01*
X012501Y021637D01*
X012435Y021659D01*
X012298Y021659D01*
X011711Y021703D02*
X011684Y021653D01*
X011684Y021610D01*
X011640Y021566D01*
X011580Y021527D01*
X011459Y021473D01*
X011344Y021401D01*
X011289Y021368D01*
X011372Y021286D01*
X011476Y021215D01*
X011553Y021155D01*
X011596Y021100D01*
X011618Y021045D01*
X011624Y021012D01*
X011607Y020979D01*
X011591Y020974D01*
X011547Y021007D01*
X011333Y021176D01*
X011130Y021314D01*
X011092Y021314D01*
X011081Y021275D01*
X011043Y021166D01*
X011010Y021067D01*
X010988Y021012D01*
X010988Y020979D01*
X010928Y021034D01*
X010922Y021116D01*
X010933Y021171D01*
X010982Y021346D01*
X011010Y021445D01*
X011070Y021582D01*
X011108Y021653D01*
X011125Y021692D01*
X011087Y021697D01*
X011043Y021664D01*
X011043Y021670D01*
X011026Y021692D01*
X010999Y021708D01*
X010988Y021730D01*
X010993Y021763D01*
X011026Y021796D01*
X011087Y021818D01*
X011158Y021845D01*
X011476Y021845D01*
X011542Y021829D01*
X011618Y021801D01*
X011662Y021774D01*
X011701Y021730D01*
X011711Y021703D01*
X011558Y021670D02*
X011520Y021659D01*
X011465Y021604D01*
X011388Y021560D01*
X011317Y021522D01*
X011235Y021505D01*
X011169Y021473D01*
X011273Y021659D01*
X011278Y021714D01*
X011476Y021714D01*
X011542Y021703D01*
X011558Y021670D01*
X010790Y021675D02*
X010790Y021653D01*
X010769Y021604D01*
X010736Y021566D01*
X010670Y021522D01*
X010429Y021401D01*
X010303Y021352D01*
X010204Y021330D01*
X010171Y021325D01*
X010133Y021325D01*
X010116Y021275D01*
X010083Y021176D01*
X010056Y021089D01*
X010034Y021050D01*
X010023Y021028D01*
X010001Y021018D01*
X009974Y021034D01*
X009952Y021067D01*
X009952Y021105D01*
X009963Y021149D01*
X010012Y021253D01*
X010045Y021330D01*
X010056Y021401D01*
X010072Y021467D01*
X010100Y021555D01*
X010127Y021621D01*
X010155Y021664D01*
X010111Y021664D01*
X010111Y021758D01*
X010160Y021758D01*
X010204Y021791D01*
X010248Y021834D01*
X010297Y021807D01*
X010494Y021807D01*
X010653Y021791D01*
X010763Y021725D01*
X010790Y021675D01*
X010664Y021659D02*
X010659Y021642D01*
X010631Y021621D01*
X010544Y021577D01*
X010473Y021527D01*
X010374Y021500D01*
X010303Y021473D01*
X010259Y021467D01*
X010193Y021467D01*
X010292Y021670D01*
X010303Y021697D01*
X010582Y021697D01*
X010648Y021670D01*
X010664Y021659D01*
X016726Y023081D02*
X016726Y023431D01*
X016901Y023431D01*
X016959Y023373D01*
X016959Y023256D01*
X016901Y023198D01*
X016726Y023198D01*
X016842Y023198D02*
X016959Y023081D01*
X017085Y023081D02*
X017318Y023081D01*
X017201Y023081D02*
X017201Y023431D01*
X017085Y023314D01*
X017092Y012785D02*
X017150Y012727D01*
X017209Y012785D01*
X017267Y012785D01*
X017326Y012727D01*
X017326Y012610D01*
X017267Y012552D01*
X017326Y012426D02*
X017209Y012309D01*
X017209Y012368D02*
X017209Y012193D01*
X017326Y012193D02*
X016975Y012193D01*
X016975Y012368D01*
X017034Y012426D01*
X017150Y012426D01*
X017209Y012368D01*
X017034Y012552D02*
X016975Y012610D01*
X016975Y012727D01*
X017034Y012785D01*
X017092Y012785D01*
X017150Y012727D02*
X017150Y012668D01*
X015826Y012727D02*
X015475Y012727D01*
X015650Y012552D01*
X015650Y012785D01*
X015650Y012426D02*
X015534Y012426D01*
X015475Y012368D01*
X015475Y012193D01*
X015826Y012193D01*
X015709Y012193D02*
X015709Y012368D01*
X015650Y012426D01*
X015709Y012309D02*
X015826Y012426D01*
X014326Y012426D02*
X014209Y012309D01*
X014209Y012368D02*
X014209Y012193D01*
X014326Y012193D02*
X013975Y012193D01*
X013975Y012368D01*
X014034Y012426D01*
X014150Y012426D01*
X014209Y012368D01*
X014267Y012552D02*
X014326Y012610D01*
X014326Y012727D01*
X014267Y012785D01*
X014150Y012785D01*
X014092Y012727D01*
X014092Y012668D01*
X014150Y012552D01*
X013975Y012552D01*
X013975Y012785D01*
X018475Y012785D02*
X018534Y012668D01*
X018650Y012552D01*
X018650Y012727D01*
X018709Y012785D01*
X018767Y012785D01*
X018826Y012727D01*
X018826Y012610D01*
X018767Y012552D01*
X018650Y012552D01*
X018650Y012426D02*
X018709Y012368D01*
X018709Y012193D01*
X018709Y012309D02*
X018826Y012426D01*
X018650Y012426D02*
X018534Y012426D01*
X018475Y012368D01*
X018475Y012193D01*
X018826Y012193D01*
D14*
X014759Y016288D02*
X005232Y016288D01*
X005232Y026683D01*
X007722Y029174D01*
X012269Y029174D01*
X014759Y026683D01*
X014759Y016288D01*
X019366Y027601D02*
X019368Y027651D01*
X019374Y027701D01*
X019384Y027750D01*
X019398Y027798D01*
X019415Y027845D01*
X019436Y027890D01*
X019461Y027934D01*
X019489Y027975D01*
X019521Y028014D01*
X019555Y028051D01*
X019592Y028085D01*
X019632Y028115D01*
X019674Y028142D01*
X019718Y028166D01*
X019764Y028187D01*
X019811Y028203D01*
X019859Y028216D01*
X019909Y028225D01*
X019958Y028230D01*
X020009Y028231D01*
X020059Y028228D01*
X020108Y028221D01*
X020157Y028210D01*
X020205Y028195D01*
X020251Y028177D01*
X020296Y028155D01*
X020339Y028129D01*
X020380Y028100D01*
X020419Y028068D01*
X020455Y028033D01*
X020487Y027995D01*
X020517Y027955D01*
X020544Y027912D01*
X020567Y027868D01*
X020586Y027822D01*
X020602Y027774D01*
X020614Y027725D01*
X020622Y027676D01*
X020626Y027626D01*
X020626Y027576D01*
X020622Y027526D01*
X020614Y027477D01*
X020602Y027428D01*
X020586Y027380D01*
X020567Y027334D01*
X020544Y027290D01*
X020517Y027247D01*
X020487Y027207D01*
X020455Y027169D01*
X020419Y027134D01*
X020380Y027102D01*
X020339Y027073D01*
X020296Y027047D01*
X020251Y027025D01*
X020205Y027007D01*
X020157Y026992D01*
X020108Y026981D01*
X020059Y026974D01*
X020009Y026971D01*
X019958Y026972D01*
X019909Y026977D01*
X019859Y026986D01*
X019811Y026999D01*
X019764Y027015D01*
X019718Y027036D01*
X019674Y027060D01*
X019632Y027087D01*
X019592Y027117D01*
X019555Y027151D01*
X019521Y027188D01*
X019489Y027227D01*
X019461Y027268D01*
X019436Y027312D01*
X019415Y027357D01*
X019398Y027404D01*
X019384Y027452D01*
X019374Y027501D01*
X019368Y027551D01*
X019366Y027601D01*
X003366Y027601D02*
X003368Y027651D01*
X003374Y027701D01*
X003384Y027750D01*
X003398Y027798D01*
X003415Y027845D01*
X003436Y027890D01*
X003461Y027934D01*
X003489Y027975D01*
X003521Y028014D01*
X003555Y028051D01*
X003592Y028085D01*
X003632Y028115D01*
X003674Y028142D01*
X003718Y028166D01*
X003764Y028187D01*
X003811Y028203D01*
X003859Y028216D01*
X003909Y028225D01*
X003958Y028230D01*
X004009Y028231D01*
X004059Y028228D01*
X004108Y028221D01*
X004157Y028210D01*
X004205Y028195D01*
X004251Y028177D01*
X004296Y028155D01*
X004339Y028129D01*
X004380Y028100D01*
X004419Y028068D01*
X004455Y028033D01*
X004487Y027995D01*
X004517Y027955D01*
X004544Y027912D01*
X004567Y027868D01*
X004586Y027822D01*
X004602Y027774D01*
X004614Y027725D01*
X004622Y027676D01*
X004626Y027626D01*
X004626Y027576D01*
X004622Y027526D01*
X004614Y027477D01*
X004602Y027428D01*
X004586Y027380D01*
X004567Y027334D01*
X004544Y027290D01*
X004517Y027247D01*
X004487Y027207D01*
X004455Y027169D01*
X004419Y027134D01*
X004380Y027102D01*
X004339Y027073D01*
X004296Y027047D01*
X004251Y027025D01*
X004205Y027007D01*
X004157Y026992D01*
X004108Y026981D01*
X004059Y026974D01*
X004009Y026971D01*
X003958Y026972D01*
X003909Y026977D01*
X003859Y026986D01*
X003811Y026999D01*
X003764Y027015D01*
X003718Y027036D01*
X003674Y027060D01*
X003632Y027087D01*
X003592Y027117D01*
X003555Y027151D01*
X003521Y027188D01*
X003489Y027227D01*
X003461Y027268D01*
X003436Y027312D01*
X003415Y027357D01*
X003398Y027404D01*
X003384Y027452D01*
X003374Y027501D01*
X003368Y027551D01*
X003366Y027601D01*
X003366Y002101D02*
X003368Y002151D01*
X003374Y002201D01*
X003384Y002250D01*
X003398Y002298D01*
X003415Y002345D01*
X003436Y002390D01*
X003461Y002434D01*
X003489Y002475D01*
X003521Y002514D01*
X003555Y002551D01*
X003592Y002585D01*
X003632Y002615D01*
X003674Y002642D01*
X003718Y002666D01*
X003764Y002687D01*
X003811Y002703D01*
X003859Y002716D01*
X003909Y002725D01*
X003958Y002730D01*
X004009Y002731D01*
X004059Y002728D01*
X004108Y002721D01*
X004157Y002710D01*
X004205Y002695D01*
X004251Y002677D01*
X004296Y002655D01*
X004339Y002629D01*
X004380Y002600D01*
X004419Y002568D01*
X004455Y002533D01*
X004487Y002495D01*
X004517Y002455D01*
X004544Y002412D01*
X004567Y002368D01*
X004586Y002322D01*
X004602Y002274D01*
X004614Y002225D01*
X004622Y002176D01*
X004626Y002126D01*
X004626Y002076D01*
X004622Y002026D01*
X004614Y001977D01*
X004602Y001928D01*
X004586Y001880D01*
X004567Y001834D01*
X004544Y001790D01*
X004517Y001747D01*
X004487Y001707D01*
X004455Y001669D01*
X004419Y001634D01*
X004380Y001602D01*
X004339Y001573D01*
X004296Y001547D01*
X004251Y001525D01*
X004205Y001507D01*
X004157Y001492D01*
X004108Y001481D01*
X004059Y001474D01*
X004009Y001471D01*
X003958Y001472D01*
X003909Y001477D01*
X003859Y001486D01*
X003811Y001499D01*
X003764Y001515D01*
X003718Y001536D01*
X003674Y001560D01*
X003632Y001587D01*
X003592Y001617D01*
X003555Y001651D01*
X003521Y001688D01*
X003489Y001727D01*
X003461Y001768D01*
X003436Y001812D01*
X003415Y001857D01*
X003398Y001904D01*
X003384Y001952D01*
X003374Y002001D01*
X003368Y002051D01*
X003366Y002101D01*
X019366Y002101D02*
X019368Y002151D01*
X019374Y002201D01*
X019384Y002250D01*
X019398Y002298D01*
X019415Y002345D01*
X019436Y002390D01*
X019461Y002434D01*
X019489Y002475D01*
X019521Y002514D01*
X019555Y002551D01*
X019592Y002585D01*
X019632Y002615D01*
X019674Y002642D01*
X019718Y002666D01*
X019764Y002687D01*
X019811Y002703D01*
X019859Y002716D01*
X019909Y002725D01*
X019958Y002730D01*
X020009Y002731D01*
X020059Y002728D01*
X020108Y002721D01*
X020157Y002710D01*
X020205Y002695D01*
X020251Y002677D01*
X020296Y002655D01*
X020339Y002629D01*
X020380Y002600D01*
X020419Y002568D01*
X020455Y002533D01*
X020487Y002495D01*
X020517Y002455D01*
X020544Y002412D01*
X020567Y002368D01*
X020586Y002322D01*
X020602Y002274D01*
X020614Y002225D01*
X020622Y002176D01*
X020626Y002126D01*
X020626Y002076D01*
X020622Y002026D01*
X020614Y001977D01*
X020602Y001928D01*
X020586Y001880D01*
X020567Y001834D01*
X020544Y001790D01*
X020517Y001747D01*
X020487Y001707D01*
X020455Y001669D01*
X020419Y001634D01*
X020380Y001602D01*
X020339Y001573D01*
X020296Y001547D01*
X020251Y001525D01*
X020205Y001507D01*
X020157Y001492D01*
X020108Y001481D01*
X020059Y001474D01*
X020009Y001471D01*
X019958Y001472D01*
X019909Y001477D01*
X019859Y001486D01*
X019811Y001499D01*
X019764Y001515D01*
X019718Y001536D01*
X019674Y001560D01*
X019632Y001587D01*
X019592Y001617D01*
X019555Y001651D01*
X019521Y001688D01*
X019489Y001727D01*
X019461Y001768D01*
X019436Y001812D01*
X019415Y001857D01*
X019398Y001904D01*
X019384Y001952D01*
X019374Y002001D01*
X019368Y002051D01*
X019366Y002101D01*
D15*
X019356Y006176D02*
X019281Y006251D01*
X019356Y006176D02*
X019506Y006176D01*
X019581Y006251D01*
X019581Y006401D01*
X019506Y006476D01*
X019431Y006476D01*
X019281Y006401D01*
X019281Y006626D01*
X019581Y006626D01*
X019121Y006551D02*
X019046Y006626D01*
X018896Y006626D01*
X018821Y006551D01*
X018821Y006251D01*
X018896Y006176D01*
X019046Y006176D01*
X019121Y006251D01*
X019121Y007976D02*
X019121Y008276D01*
X019121Y008126D02*
X018670Y008126D01*
X018820Y007976D01*
X018670Y009126D02*
X019121Y009126D01*
X018970Y009126D02*
X018670Y009426D01*
X018670Y009586D02*
X019121Y009586D01*
X019121Y009886D01*
X018895Y009736D02*
X018895Y009586D01*
X018670Y009586D02*
X018670Y009886D01*
X018670Y010046D02*
X018745Y010046D01*
X018895Y010197D01*
X019121Y010197D01*
X018895Y010197D02*
X018745Y010347D01*
X018670Y010347D01*
X018670Y010507D02*
X018670Y010732D01*
X018745Y010807D01*
X018895Y010807D01*
X018970Y010732D01*
X018970Y010507D01*
X019121Y010507D02*
X018670Y010507D01*
X018820Y010967D02*
X018670Y011117D01*
X018820Y011267D01*
X019121Y011267D01*
X019121Y011428D02*
X019121Y011653D01*
X019046Y011728D01*
X018745Y011728D01*
X018670Y011653D01*
X018670Y011428D01*
X019121Y011428D01*
X018895Y011267D02*
X018895Y010967D01*
X018820Y010967D02*
X019121Y010967D01*
X019121Y009426D02*
X018895Y009201D01*
X021870Y011926D02*
X022321Y011926D01*
X022321Y011776D02*
X022321Y012076D01*
X022246Y012236D02*
X021945Y012536D01*
X022246Y012536D01*
X022321Y012461D01*
X022321Y012311D01*
X022246Y012236D01*
X021945Y012236D01*
X021870Y012311D01*
X021870Y012461D01*
X021945Y012536D01*
X021870Y011926D02*
X022020Y011776D01*
X019221Y014126D02*
X018770Y014126D01*
X018770Y014351D01*
X018845Y014426D01*
X018995Y014426D01*
X019070Y014351D01*
X019070Y014126D01*
X019070Y014276D02*
X019221Y014426D01*
X019221Y014586D02*
X018770Y014586D01*
X019221Y014886D01*
X018770Y014886D01*
X018920Y015046D02*
X018770Y015197D01*
X019221Y015197D01*
X019221Y015347D02*
X019221Y015046D01*
X018016Y016476D02*
X017866Y016476D01*
X017791Y016551D01*
X017631Y016476D02*
X017331Y016476D01*
X017481Y016476D02*
X017481Y016926D01*
X017331Y016776D01*
X017171Y016851D02*
X017096Y016926D01*
X016946Y016926D01*
X016871Y016851D01*
X016871Y016551D01*
X016946Y016476D01*
X017096Y016476D01*
X017171Y016551D01*
X017791Y016851D02*
X017866Y016926D01*
X018016Y016926D01*
X018092Y016851D01*
X018092Y016776D01*
X018016Y016701D01*
X018092Y016626D01*
X018092Y016551D01*
X018016Y016476D01*
X018016Y016701D02*
X017941Y016701D01*
X017321Y018826D02*
X016870Y018826D01*
X016870Y019051D01*
X016945Y019126D01*
X017246Y019126D01*
X017321Y019051D01*
X017321Y018826D01*
X017321Y019286D02*
X017321Y019586D01*
X017321Y019436D02*
X016870Y019436D01*
X017020Y019286D01*
X016221Y017476D02*
X016221Y017176D01*
X016221Y017326D02*
X015770Y017326D01*
X015920Y017176D01*
X015321Y017626D02*
X014870Y017626D01*
X014870Y017851D01*
X014945Y017926D01*
X015095Y017926D01*
X015170Y017851D01*
X015170Y017626D01*
X015246Y018086D02*
X014945Y018086D01*
X014870Y018161D01*
X014870Y018311D01*
X014945Y018386D01*
X015246Y018386D01*
X015321Y018311D01*
X015321Y018161D01*
X015246Y018086D01*
X015321Y018546D02*
X015170Y018697D01*
X015321Y018847D01*
X014870Y018847D01*
X014870Y019007D02*
X015321Y019007D01*
X015321Y019307D01*
X015321Y019467D02*
X014870Y019467D01*
X014870Y019692D01*
X014945Y019767D01*
X015095Y019767D01*
X015170Y019692D01*
X015170Y019467D01*
X015170Y019617D02*
X015321Y019767D01*
X014870Y019307D02*
X014870Y019007D01*
X015095Y019007D02*
X015095Y019157D01*
X014870Y018546D02*
X015321Y018546D01*
X015995Y021726D02*
X015995Y022026D01*
X015770Y021951D02*
X015995Y021726D01*
X016221Y021951D02*
X015770Y021951D01*
X015535Y023476D02*
X015385Y023476D01*
X015310Y023551D01*
X015310Y023701D02*
X015460Y023776D01*
X015535Y023776D01*
X015610Y023701D01*
X015610Y023551D01*
X015535Y023476D01*
X015310Y023701D02*
X015310Y023926D01*
X015610Y023926D01*
X015896Y026676D02*
X015821Y026751D01*
X015821Y027051D01*
X015896Y027126D01*
X016046Y027126D01*
X016121Y027051D01*
X016281Y027126D02*
X016581Y027126D01*
X016581Y027051D01*
X016281Y026751D01*
X016281Y026676D01*
X016121Y026751D02*
X016046Y026676D01*
X015896Y026676D01*
X015896Y028676D02*
X016046Y028676D01*
X016121Y028751D01*
X016281Y028751D02*
X016281Y028826D01*
X016356Y028901D01*
X016506Y028901D01*
X016581Y028826D01*
X016581Y028751D01*
X016506Y028676D01*
X016356Y028676D01*
X016281Y028751D01*
X016356Y028901D02*
X016281Y028976D01*
X016281Y029051D01*
X016356Y029126D01*
X016506Y029126D01*
X016581Y029051D01*
X016581Y028976D01*
X016506Y028901D01*
X016121Y029051D02*
X016046Y029126D01*
X015896Y029126D01*
X015821Y029051D01*
X015821Y028751D01*
X015896Y028676D01*
X019310Y025576D02*
X019460Y025726D01*
X019460Y025276D01*
X019310Y025276D02*
X019610Y025276D01*
X019560Y023926D02*
X019785Y023926D01*
X019860Y023851D01*
X019860Y023551D01*
X019785Y023476D01*
X019560Y023476D01*
X019560Y023926D01*
X019400Y023851D02*
X019325Y023926D01*
X019175Y023926D01*
X019100Y023851D01*
X019100Y023551D01*
X019175Y023476D01*
X019325Y023476D01*
X019400Y023551D01*
X018943Y023476D02*
X018793Y023476D01*
X018868Y023476D02*
X018868Y023926D01*
X018793Y023926D02*
X018943Y023926D01*
X011110Y015276D02*
X010810Y015276D01*
X010960Y015276D02*
X010960Y015726D01*
X010810Y015576D01*
X010825Y012926D02*
X010900Y012851D01*
X010900Y012551D01*
X010825Y012476D01*
X010675Y012476D01*
X010600Y012551D01*
X010600Y012851D01*
X010675Y012926D01*
X010825Y012926D01*
X011060Y012926D02*
X011060Y012476D01*
X011060Y012626D02*
X011285Y012626D01*
X011360Y012701D01*
X011360Y012851D01*
X011285Y012926D01*
X011060Y012926D01*
X010440Y012926D02*
X010139Y012476D01*
X009979Y012551D02*
X009979Y012701D01*
X009829Y012701D01*
X009679Y012851D02*
X009679Y012551D01*
X009754Y012476D01*
X009904Y012476D01*
X009979Y012551D01*
X009979Y012851D02*
X009904Y012926D01*
X009754Y012926D01*
X009679Y012851D01*
X009519Y012851D02*
X009444Y012926D01*
X009294Y012926D01*
X009219Y012851D01*
X009219Y012551D01*
X009294Y012476D01*
X009444Y012476D01*
X009519Y012551D01*
X009519Y012851D01*
X009058Y012851D02*
X009058Y012701D01*
X008983Y012626D01*
X008758Y012626D01*
X008758Y012476D02*
X008758Y012926D01*
X008983Y012926D01*
X009058Y012851D01*
X008908Y012626D02*
X009058Y012476D01*
X008598Y012701D02*
X008523Y012626D01*
X008298Y012626D01*
X008298Y012476D02*
X008298Y012926D01*
X008523Y012926D01*
X008598Y012851D01*
X008598Y012701D01*
X008606Y011866D02*
X008756Y011866D01*
X008831Y011791D01*
X008831Y011491D01*
X008756Y011416D01*
X008606Y011416D01*
X008531Y011491D01*
X008531Y011791D01*
X008606Y011866D01*
X008681Y011566D02*
X008831Y011416D01*
X008991Y011416D02*
X009291Y011416D01*
X009141Y011416D02*
X009141Y011866D01*
X008991Y011716D01*
X008521Y010166D02*
X008521Y009865D01*
X008220Y010166D01*
X008145Y010166D01*
X008070Y010091D01*
X008070Y009940D01*
X008145Y009865D01*
X008145Y009705D02*
X008070Y009630D01*
X008070Y009480D01*
X008145Y009405D01*
X008446Y009405D01*
X008521Y009480D01*
X008521Y009630D01*
X008446Y009705D01*
X006721Y012126D02*
X006721Y012426D01*
X006721Y012276D02*
X006270Y012276D01*
X006420Y012126D01*
X005821Y012776D02*
X005370Y012776D01*
X005370Y012626D02*
X005370Y012926D01*
X005370Y013086D02*
X005370Y013386D01*
X005370Y013236D02*
X005821Y013236D01*
X005821Y013546D02*
X005821Y013847D01*
X005821Y013546D02*
X005370Y013546D01*
X004360Y014976D02*
X004060Y014976D01*
X004210Y014976D02*
X004210Y015426D01*
X004060Y015276D01*
X003900Y015426D02*
X003900Y014976D01*
X003750Y015126D01*
X003600Y014976D01*
X003600Y015426D01*
X003440Y015351D02*
X003365Y015426D01*
X003214Y015426D01*
X003139Y015351D01*
X003139Y015276D01*
X003214Y015201D01*
X003365Y015201D01*
X003440Y015126D01*
X003440Y015051D01*
X003365Y014976D01*
X003214Y014976D01*
X003139Y015051D01*
X003375Y013526D02*
X003300Y013451D01*
X003300Y013151D01*
X003375Y013076D01*
X003525Y013076D01*
X003600Y013151D01*
X003760Y013151D02*
X003835Y013076D01*
X003985Y013076D01*
X004060Y013151D01*
X004060Y013451D01*
X003985Y013526D01*
X003835Y013526D01*
X003760Y013451D01*
X003760Y013376D01*
X003835Y013301D01*
X004060Y013301D01*
X003600Y013451D02*
X003525Y013526D01*
X003375Y013526D01*
X003545Y011186D02*
X003470Y011111D01*
X003470Y010961D01*
X003545Y010886D01*
X003545Y010726D02*
X003846Y010726D01*
X003921Y010651D01*
X003921Y010501D01*
X003846Y010426D01*
X003545Y010426D01*
X003470Y010501D01*
X003470Y010651D01*
X003545Y010726D01*
X003770Y010576D02*
X003921Y010726D01*
X003921Y010886D02*
X003620Y011186D01*
X003545Y011186D01*
X003921Y011186D02*
X003921Y010886D01*
X003795Y010166D02*
X003795Y009865D01*
X003570Y010091D01*
X004021Y010091D01*
X003946Y009705D02*
X004021Y009630D01*
X004021Y009480D01*
X003946Y009405D01*
X003645Y009405D01*
X003570Y009480D01*
X003570Y009630D01*
X003645Y009705D01*
X004970Y009611D02*
X004970Y009461D01*
X005045Y009386D01*
X005045Y009226D02*
X004970Y009151D01*
X004970Y009001D01*
X005045Y008926D01*
X005346Y008926D01*
X005421Y009001D01*
X005421Y009151D01*
X005346Y009226D01*
X005346Y009386D02*
X005421Y009461D01*
X005421Y009611D01*
X005346Y009686D01*
X005270Y009686D01*
X005195Y009611D01*
X005195Y009536D01*
X005195Y009611D02*
X005120Y009686D01*
X005045Y009686D01*
X004970Y009611D01*
X008035Y013376D02*
X008185Y013376D01*
X008260Y013451D01*
X008260Y013526D01*
X008185Y013601D01*
X007960Y013601D01*
X007960Y013451D01*
X008035Y013376D01*
X007960Y013601D02*
X008110Y013751D01*
X008260Y013826D01*
X004546Y018784D02*
X004621Y018859D01*
X004621Y019009D01*
X004546Y019084D01*
X004245Y019084D01*
X004170Y019009D01*
X004170Y018859D01*
X004245Y018784D01*
X004546Y018784D01*
X004621Y019245D02*
X004170Y019245D01*
X004170Y019705D02*
X004621Y019705D01*
X004621Y020005D01*
X004621Y020165D02*
X004621Y020390D01*
X004546Y020466D01*
X004245Y020466D01*
X004170Y020390D01*
X004170Y020165D01*
X004621Y020165D01*
X004395Y019855D02*
X004395Y019705D01*
X004170Y019705D02*
X004170Y020005D01*
X004621Y019545D02*
X004621Y019245D01*
X003721Y020665D02*
X003721Y020966D01*
X003721Y020816D02*
X003270Y020816D01*
X003420Y020665D01*
X003450Y021576D02*
X003450Y022026D01*
X003300Y021876D01*
X003140Y021951D02*
X003065Y022026D01*
X002914Y022026D01*
X002839Y021951D01*
X002839Y021651D01*
X002914Y021576D01*
X003065Y021576D01*
X003140Y021651D01*
X003300Y021576D02*
X003600Y021576D01*
X003760Y021576D02*
X004060Y021576D01*
X003910Y021576D02*
X003910Y022026D01*
X003760Y021876D01*
X003835Y023576D02*
X003760Y023651D01*
X004060Y023951D01*
X004060Y023651D01*
X003985Y023576D01*
X003835Y023576D01*
X003760Y023651D02*
X003760Y023951D01*
X003835Y024026D01*
X003985Y024026D01*
X004060Y023951D01*
X003600Y023576D02*
X003300Y023576D01*
X003450Y023576D02*
X003450Y024026D01*
X003300Y023876D01*
X003140Y023951D02*
X003065Y024026D01*
X002914Y024026D01*
X002839Y023951D01*
X002839Y023651D01*
X002914Y023576D01*
X003065Y023576D01*
X003140Y023651D01*
X012875Y013526D02*
X012800Y013451D01*
X012800Y013151D01*
X012875Y013076D01*
X013025Y013076D01*
X013100Y013151D01*
X013260Y013151D02*
X013335Y013076D01*
X013485Y013076D01*
X013560Y013151D01*
X013560Y013226D01*
X013485Y013301D01*
X013260Y013301D01*
X013260Y013151D01*
X013260Y013301D02*
X013410Y013451D01*
X013560Y013526D01*
X013100Y013451D02*
X013025Y013526D01*
X012875Y013526D01*
X013421Y009686D02*
X013421Y009386D01*
X013421Y009536D02*
X012970Y009536D01*
X013120Y009386D01*
X013045Y009226D02*
X012970Y009151D01*
X012970Y009001D01*
X013045Y008926D01*
X013346Y008926D01*
X013421Y009001D01*
X013421Y009151D01*
X013346Y009226D01*
D16*
X012496Y009351D02*
X012496Y010851D01*
X012494Y010881D01*
X012489Y010911D01*
X012480Y010940D01*
X012467Y010967D01*
X012452Y010993D01*
X012433Y011017D01*
X012412Y011038D01*
X012388Y011057D01*
X012362Y011072D01*
X012335Y011085D01*
X012306Y011094D01*
X012276Y011099D01*
X012246Y011101D01*
X008746Y011101D01*
X008716Y011099D01*
X008686Y011094D01*
X008657Y011085D01*
X008630Y011072D01*
X008604Y011057D01*
X008580Y011038D01*
X008559Y011017D01*
X008540Y010993D01*
X008525Y010967D01*
X008512Y010940D01*
X008503Y010911D01*
X008498Y010881D01*
X008496Y010851D01*
X008496Y009351D01*
X008498Y009321D01*
X008503Y009291D01*
X008512Y009262D01*
X008525Y009235D01*
X008540Y009209D01*
X008559Y009185D01*
X008580Y009164D01*
X008604Y009145D01*
X008630Y009130D01*
X008657Y009117D01*
X008686Y009108D01*
X008716Y009103D01*
X008746Y009101D01*
X012246Y009101D01*
X012276Y009103D01*
X012306Y009108D01*
X012335Y009117D01*
X012362Y009130D01*
X012388Y009145D01*
X012412Y009164D01*
X012433Y009185D01*
X012452Y009209D01*
X012467Y009235D01*
X012480Y009262D01*
X012489Y009291D01*
X012494Y009321D01*
X012496Y009351D01*
X004696Y009901D02*
X004696Y010051D01*
X004296Y010101D02*
X004296Y009901D01*
D17*
X003296Y009721D02*
X002696Y009721D01*
X002696Y009471D02*
X003296Y009471D01*
X005696Y009481D02*
X006296Y009481D01*
X006296Y009731D02*
X005696Y009731D01*
X007196Y009721D02*
X007796Y009721D01*
X007796Y009471D02*
X007196Y009471D01*
X010126Y009601D02*
X010126Y010101D01*
X010126Y010601D01*
X010366Y010601D02*
X010616Y010601D01*
X010616Y009601D01*
X010366Y009601D01*
X010366Y010601D01*
X010866Y010601D02*
X010866Y010101D01*
X010866Y009601D01*
X013696Y009481D02*
X014296Y009481D01*
X014296Y009731D02*
X013696Y009731D01*
X013116Y013801D02*
X013116Y014401D01*
X012866Y014401D02*
X012866Y013801D01*
X019376Y005901D02*
X019376Y005301D01*
X019626Y005301D02*
X019626Y005901D01*
X016626Y025801D02*
X016626Y026401D01*
X016376Y026401D02*
X016376Y025801D01*
X016376Y027801D02*
X016376Y028401D01*
X016626Y028401D02*
X016626Y027801D01*
X003616Y024901D02*
X003616Y024301D01*
X003366Y024301D02*
X003366Y024901D01*
X003366Y022901D02*
X003366Y022301D01*
X003616Y022301D02*
X003616Y022901D01*
X003616Y014401D02*
X003616Y013801D01*
X003366Y013801D02*
X003366Y014401D01*
D18*
X004296Y010116D03*
X004696Y010116D03*
D19*
X018001Y019051D03*
D20*
X017996Y018656D03*
X017996Y020545D03*
M02*
