%
M48
M72
T01C0.0240
T02C0.0315
T03C0.0320
T04C0.0360
T05C0.0400
T06C0.0433
T07C0.1181
%
T01
X8546Y11651
X15696Y13601
X18496Y10101
T02
X14326Y19557
X14326Y20345
X14326Y21132
X14326Y21920
X14326Y22707
X14326Y23494
X14326Y24282
X14326Y25069
X14326Y25857
X14326Y26644
X5665Y26644
X5665Y25857
X5665Y25069
X5665Y24282
X5665Y23494
X5665Y22707
X5665Y21920
X5665Y21132
X5665Y20345
X5665Y19557
T03
X2996Y4601
X3996Y4601
X4996Y4601
X5996Y4601
X6996Y4601
X7996Y4601
X8996Y4601
X9996Y4601
X10996Y4601
X11996Y4601
X12996Y4601
X13996Y4601
X14996Y4601
X15996Y4601
X15996Y7601
X14996Y7601
X13996Y7601
X12996Y7601
X11996Y7601
X10996Y7601
X9996Y7601
X8996Y7601
X7996Y7601
X6996Y7601
X5996Y7601
X4996Y7601
X3996Y7601
X2996Y7601
X2996Y9101
X2996Y10101
X3996Y9601
X4996Y9601
X5996Y10101
X5996Y9101
X7496Y9101
X7496Y10101
X9496Y10101
X11496Y10101
X13496Y11101
X13996Y10101
X13996Y9101
X14996Y11101
X16496Y11101
X17996Y11101
X17996Y13101
X16496Y13101
X14996Y13101
X13496Y13101
X13496Y14101
X12496Y14101
X15596Y16101
X16396Y16101
X19996Y16601
X19996Y17601
X19996Y18601
X19996Y19601
X19996Y20601
X19996Y21601
X19996Y22601
X18496Y22601
X16496Y22601
X16996Y26101
X15996Y26101
X15996Y28101
X16996Y28101
X19996Y15601
X19996Y14601
X19996Y13601
X19996Y5601
X18996Y5601
X3996Y14101
X2996Y14101
X2996Y22601
X3996Y22601
X3996Y24601
X2996Y24601
T04
X2996Y16101
X3996Y16101
X19996Y12101
X19996Y11101
X19996Y10101
X20996Y10101
X20996Y11101
X20996Y12101
X20996Y9101
X20996Y8101
X19996Y8101
X19996Y9101
T05
X15996Y18101
X15996Y19101
X15996Y20101
X15996Y21101
X16496Y24601
X15496Y24601
X17496Y24601
X18496Y24601
X19496Y24601
X10996Y14601
X10996Y13601
X9996Y13601
X9996Y14601
X8996Y14601
X8996Y13601
X6496Y14101
X6496Y13101
X6496Y15101
X3496Y18101
X3496Y19101
X3496Y20101
T06
X17996Y21101
X17996Y18101
T07
X19996Y27601
X3996Y27601
X3996Y2101
X19996Y2101
M30
