G75*
G70*
%OFA0B0*%
%FSLAX24Y24*%
%IPPOS*%
%LPD*%
%AMOC8*
5,1,8,0,0,1.08239X$1,22.5*
%
%ADD10C,0.0600*%
%ADD11OC8,0.0600*%
%ADD12C,0.2380*%
%ADD13C,0.0680*%
%ADD14C,0.0640*%
%ADD15OC8,0.0640*%
%ADD16C,0.0600*%
%ADD17C,0.0640*%
%ADD18C,0.0595*%
%ADD19C,0.0680*%
%ADD20OC8,0.0680*%
%ADD21C,0.0749*%
%ADD22C,0.0480*%
D10*
X002996Y004341D02*
X002996Y004861D01*
X003996Y004861D02*
X003996Y004341D01*
X004996Y004341D02*
X004996Y004861D01*
X005996Y004861D02*
X005996Y004341D01*
X006996Y004341D02*
X006996Y004861D01*
X007996Y004861D02*
X007996Y004341D01*
X008996Y004341D02*
X008996Y004861D01*
X009996Y004861D02*
X009996Y004341D01*
X010996Y004341D02*
X010996Y004861D01*
X011996Y004861D02*
X011996Y004341D01*
X012996Y004341D02*
X012996Y004861D01*
X013996Y004861D02*
X013996Y004341D01*
X014996Y004341D02*
X014996Y004861D01*
X015996Y004861D02*
X015996Y004341D01*
X015996Y007341D02*
X015996Y007861D01*
X014996Y007861D02*
X014996Y007341D01*
X013996Y007341D02*
X013996Y007861D01*
X012996Y007861D02*
X012996Y007341D01*
X011996Y007341D02*
X011996Y007861D01*
X010996Y007861D02*
X010996Y007341D01*
X009996Y007341D02*
X009996Y007861D01*
X008996Y007861D02*
X008996Y007341D01*
X007996Y007341D02*
X007996Y007861D01*
X006996Y007861D02*
X006996Y007341D01*
X005996Y007341D02*
X005996Y007861D01*
X004996Y007861D02*
X004996Y007341D01*
X003996Y007341D02*
X003996Y007861D01*
X002996Y007861D02*
X002996Y007341D01*
X019736Y013601D02*
X020256Y013601D01*
X020256Y014601D02*
X019736Y014601D01*
X019736Y015601D02*
X020256Y015601D01*
X020256Y016601D02*
X019736Y016601D01*
X019736Y017601D02*
X020256Y017601D01*
X020256Y018601D02*
X019736Y018601D01*
X019736Y019601D02*
X020256Y019601D01*
X020256Y020601D02*
X019736Y020601D01*
X019736Y021601D02*
X020256Y021601D01*
X020256Y022601D02*
X019736Y022601D01*
D11*
X018496Y022601D03*
X016496Y022601D03*
X016996Y026101D03*
X015996Y026101D03*
X015996Y028101D03*
X016996Y028101D03*
X016396Y016101D03*
X016496Y013101D03*
X014996Y013101D03*
X013496Y013101D03*
X013496Y014101D03*
X012496Y014101D03*
X013496Y011101D03*
X013996Y010101D03*
X013996Y009101D03*
X014996Y011101D03*
X016496Y011101D03*
X017996Y011101D03*
X017996Y013101D03*
X018996Y005601D03*
X019996Y005601D03*
X007496Y009101D03*
X007496Y010101D03*
X005996Y010101D03*
X005996Y009101D03*
X002996Y009101D03*
X002996Y010101D03*
X002996Y014101D03*
X003996Y014101D03*
X003996Y022601D03*
X002996Y022601D03*
X002996Y024601D03*
X003996Y024601D03*
D12*
X003996Y027601D03*
X019996Y027601D03*
X019996Y002101D03*
X003996Y002101D03*
D13*
X006196Y013101D02*
X006796Y013101D01*
X006796Y014101D02*
X006196Y014101D01*
X006196Y015101D02*
X006796Y015101D01*
X003796Y018101D02*
X003196Y018101D01*
X003196Y019101D02*
X003796Y019101D01*
X003796Y020101D02*
X003196Y020101D01*
X015496Y024301D02*
X015496Y024901D01*
X016496Y024901D02*
X016496Y024301D01*
X017496Y024301D02*
X017496Y024901D01*
X018496Y024901D02*
X018496Y024301D01*
X019496Y024301D02*
X019496Y024901D01*
X016296Y021101D02*
X015696Y021101D01*
X015696Y020101D02*
X016296Y020101D01*
X016296Y019101D02*
X015696Y019101D01*
X015696Y018101D02*
X016296Y018101D01*
D14*
X019996Y008101D03*
D15*
X019996Y009101D03*
X020996Y009101D03*
X020996Y008101D03*
X020996Y010101D03*
X020996Y011101D03*
X020996Y012101D03*
X019996Y012101D03*
X019996Y011101D03*
X019996Y010101D03*
D16*
X015596Y016101D03*
X011496Y010101D03*
X009496Y010101D03*
X004996Y009601D03*
X003996Y009601D03*
D17*
X003996Y015821D02*
X003996Y016381D01*
X002996Y016381D02*
X002996Y015821D01*
D18*
X005665Y019557D03*
X005665Y020345D03*
X005665Y021132D03*
X005665Y021920D03*
X005665Y022707D03*
X005665Y023494D03*
X005665Y024282D03*
X005665Y025069D03*
X005665Y025857D03*
X005665Y026644D03*
X014326Y026644D03*
X014326Y025857D03*
X014326Y025069D03*
X014326Y024282D03*
X014326Y023494D03*
X014326Y022707D03*
X014326Y021920D03*
X014326Y021132D03*
X014326Y020345D03*
X014326Y019557D03*
D19*
X010996Y014601D03*
D20*
X010996Y013601D03*
X009996Y013601D03*
X009996Y014601D03*
X008996Y014601D03*
X008996Y013601D03*
D21*
X017996Y018101D03*
X017996Y021101D03*
D22*
X015696Y013601D03*
X018496Y010101D03*
X008546Y011651D03*
M02*
